<svg xmlns="http://www.w3.org/2000/svg" xmlns:xlink="http://www.w3.org/1999/xlink" width="500" zoomAndPan="magnify" viewBox="0 0 375 374.999991" height="500" preserveAspectRatio="xMidYMid meet" version="1.0"><defs><g/><clipPath id="30ea97d0e2"><path d="M 52.601562 89.328125 L 322.601562 89.328125 L 322.601562 179.328125 L 52.601562 179.328125 Z M 52.601562 89.328125 " clip-rule="nonzero"/></clipPath></defs><rect x="-37.5" width="450" fill="#ffffff" y="-37.499999" height="449.999989" fill-opacity="1"/><rect x="-37.5" width="450" fill="#0097ba" y="-37.499999" height="449.999989" fill-opacity="1"/><g clip-path="url(#30ea97d0e2)"><path fill="#ffffff" d="M 52.601562 179.460938 L 127.003906 124.070312 L 201.136719 89.378906 L 230.957031 120.410156 L 245.199219 115.402344 L 263.933594 134.414062 L 286.628906 134.414062 L 322.238281 173.78125 L 277.125 170.785156 L 291.375 166.445312 L 244.9375 120.410156 L 194.378906 158.777344 L 175.289062 163.777344 L 222.253906 125.746094 L 196.398438 97.378906 L 112.484375 158.441406 Z M 52.601562 179.460938 " fill-opacity="1" fill-rule="nonzero"/></g><path fill="#ffffff" d="M 245.128906 146.28125 L 259.027344 146.28125 L 259.027344 163.308594 L 245.128906 163.308594 Z M 245.128906 146.28125 " fill-opacity="1" fill-rule="nonzero"/><path fill="#ffffff" d="M 227.3125 146.28125 L 241.214844 146.28125 L 241.214844 163.308594 L 227.3125 163.308594 Z M 227.3125 146.28125 " fill-opacity="1" fill-rule="nonzero"/><g fill="#ffffff" fill-opacity="1"><g transform="translate(37.193749, 225.372206)"><g><path d="M 6.203125 0 C 4.796875 0 3.695312 -0.347656 2.90625 -1.046875 C 2.113281 -1.753906 1.71875 -2.71875 1.71875 -3.9375 C 1.71875 -4.15625 1.753906 -4.515625 1.828125 -5.015625 L 7.609375 -37.765625 L 15.046875 -37.765625 L 9.546875 -6.46875 L 30.046875 -6.46875 L 28.921875 0 Z M 6.203125 0 "/></g></g></g><g fill="#ffffff" fill-opacity="1"><g transform="translate(68.922157, 225.372206)"><g><path d="M 11.875 0.4375 C 8.707031 0.4375 6.160156 -0.363281 4.234375 -1.96875 C 2.304688 -3.570312 1.34375 -5.6875 1.34375 -8.3125 C 1.34375 -8.957031 1.398438 -9.601562 1.515625 -10.25 L 2.640625 -16.5625 C 3.253906 -19.945312 4.675781 -22.59375 6.90625 -24.5 C 9.132812 -26.40625 11.941406 -27.359375 15.328125 -27.359375 L 20.125 -27.359375 C 23.394531 -27.359375 25.984375 -26.570312 27.890625 -25 C 29.796875 -23.4375 30.75 -21.328125 30.75 -18.671875 C 30.75 -18.273438 30.675781 -17.570312 30.53125 -16.5625 L 29.40625 -10.25 C 28.789062 -6.863281 27.382812 -4.234375 25.1875 -2.359375 C 23 -0.492188 20.160156 0.4375 16.671875 0.4375 Z M 16.9375 -5.875 C 18.300781 -5.875 19.453125 -6.316406 20.390625 -7.203125 C 21.328125 -8.085938 21.921875 -9.300781 22.171875 -10.84375 L 23.09375 -16.078125 C 23.164062 -16.648438 23.203125 -17.046875 23.203125 -17.265625 C 23.203125 -18.410156 22.882812 -19.328125 22.25 -20.015625 C 21.625 -20.703125 20.753906 -21.046875 19.640625 -21.046875 L 15.046875 -21.046875 C 13.679688 -21.046875 12.539062 -20.601562 11.625 -19.71875 C 10.707031 -18.832031 10.125 -17.617188 9.875 -16.078125 L 8.953125 -10.84375 C 8.878906 -10.269531 8.84375 -9.859375 8.84375 -9.609375 C 8.84375 -8.453125 9.15625 -7.539062 9.78125 -6.875 C 10.414062 -6.207031 11.273438 -5.875 12.359375 -5.875 Z M 16.9375 -5.875 "/></g></g></g><g fill="#ffffff" fill-opacity="1"><g transform="translate(100.974332, 225.372206)"><g><path d="M 10.03125 10.953125 C 7.125 10.953125 4.796875 10.222656 3.046875 8.765625 C 1.304688 7.304688 0.4375 5.375 0.4375 2.96875 C 0.4375 2.570312 0.453125 2.265625 0.484375 2.046875 L 7.71875 2.046875 C 7.675781 2.835938 7.898438 3.472656 8.390625 3.953125 C 8.878906 4.441406 9.535156 4.6875 10.359375 4.6875 L 15.21875 4.6875 C 16.4375 4.6875 17.457031 4.242188 18.28125 3.359375 C 19.113281 2.484375 19.65625 1.273438 19.90625 -0.265625 L 20.34375 -2.8125 C 19.476562 -2.019531 18.539062 -1.390625 17.53125 -0.921875 C 16.53125 -0.453125 15.632812 -0.21875 14.84375 -0.21875 L 11.21875 -0.21875 C 8.238281 -0.21875 5.859375 -0.988281 4.078125 -2.53125 C 2.296875 -4.082031 1.40625 -6.148438 1.40625 -8.734375 C 1.40625 -9.421875 1.457031 -10.109375 1.5625 -10.796875 L 2.53125 -16.296875 C 3.144531 -19.785156 4.539062 -22.5 6.71875 -24.4375 C 8.894531 -26.382812 11.617188 -27.359375 14.890625 -27.359375 L 18.015625 -27.359375 C 19.453125 -27.359375 20.773438 -27.066406 21.984375 -26.484375 C 23.191406 -25.910156 24.082031 -25.15625 24.65625 -24.21875 L 25.140625 -26.921875 L 31.9375 -26.921875 L 27.25 -0.265625 C 26.632812 3.253906 25.238281 6.003906 23.0625 7.984375 C 20.882812 9.960938 18.160156 10.953125 14.890625 10.953125 Z M 15.921875 -6.421875 C 17.285156 -6.421875 18.53125 -6.984375 19.65625 -8.109375 C 20.789062 -9.242188 21.59375 -10.734375 22.0625 -12.578125 L 22.71875 -16.296875 C 22.820312 -17.734375 22.53125 -18.882812 21.84375 -19.75 C 21.164062 -20.613281 20.195312 -21.046875 18.9375 -21.046875 L 15.15625 -21.046875 C 13.757812 -21.046875 12.570312 -20.578125 11.59375 -19.640625 C 10.625 -18.703125 10.015625 -17.40625 9.765625 -15.75 L 9.015625 -11.328125 C 8.941406 -10.753906 8.90625 -10.359375 8.90625 -10.140625 C 8.90625 -8.992188 9.203125 -8.085938 9.796875 -7.421875 C 10.390625 -6.753906 11.1875 -6.421875 12.1875 -6.421875 Z M 15.921875 -6.421875 "/></g></g></g><g fill="#ffffff" fill-opacity="1"><g transform="translate(133.67402, 225.372206)"><g><path d="M 10.625 -29.453125 C 9.4375 -29.453125 8.484375 -29.773438 7.765625 -30.421875 C 7.046875 -31.078125 6.6875 -31.925781 6.6875 -32.96875 C 6.6875 -34.550781 7.179688 -35.835938 8.171875 -36.828125 C 9.160156 -37.816406 10.484375 -38.3125 12.140625 -38.3125 C 13.328125 -38.3125 14.28125 -37.984375 15 -37.328125 C 15.71875 -36.679688 16.078125 -35.835938 16.078125 -34.796875 C 16.078125 -33.210938 15.582031 -31.925781 14.59375 -30.9375 C 13.601562 -29.945312 12.28125 -29.453125 10.625 -29.453125 Z M 6.46875 -26.921875 L 13.8125 -26.921875 L 9.0625 0 L 1.71875 0 Z M 6.46875 -26.921875 "/></g></g></g><g fill="#ffffff" fill-opacity="1"><g transform="translate(149.214467, 225.372206)"><g><path d="M 12.515625 0 C 9.859375 0 7.878906 -0.507812 6.578125 -1.53125 C 5.285156 -2.5625 4.640625 -4.15625 4.640625 -6.3125 C 4.640625 -7 4.726562 -7.84375 4.90625 -8.84375 L 7.015625 -20.671875 L 2.265625 -20.671875 L 3.34375 -26.921875 L 8.3125 -26.921875 L 9.765625 -35.0625 L 16.890625 -35.0625 L 15.4375 -26.921875 L 22.390625 -26.921875 L 21.3125 -20.671875 L 14.34375 -20.671875 L 12.296875 -9.171875 C 12.222656 -8.671875 12.1875 -8.328125 12.1875 -8.140625 C 12.1875 -6.890625 12.851562 -6.265625 14.1875 -6.265625 L 18.78125 -6.265625 L 17.640625 0 Z M 12.515625 0 "/></g></g></g><g fill="#ffffff" fill-opacity="1"><g transform="translate(171.338013, 225.372206)"><g><path d="M 10.515625 0.4375 C 7.890625 0.4375 5.8125 -0.304688 4.28125 -1.796875 C 2.757812 -3.296875 2 -5.285156 2 -7.765625 C 2 -8.273438 2.070312 -9.03125 2.21875 -10.03125 L 5.171875 -26.921875 L 12.515625 -26.921875 L 9.546875 -9.921875 C 9.472656 -9.421875 9.4375 -9.082031 9.4375 -8.90625 C 9.4375 -8 9.671875 -7.273438 10.140625 -6.734375 C 10.609375 -6.203125 11.253906 -5.9375 12.078125 -5.9375 L 15.21875 -5.9375 C 16.4375 -5.9375 17.59375 -6.421875 18.6875 -7.390625 C 19.789062 -8.359375 20.703125 -9.671875 21.421875 -11.328125 L 24.171875 -26.921875 L 31.515625 -26.921875 L 26.765625 0 L 19.96875 0 L 20.5625 -3.453125 C 19.476562 -2.265625 18.351562 -1.316406 17.1875 -0.609375 C 16.019531 0.0859375 14.945312 0.4375 13.96875 0.4375 Z M 10.515625 0.4375 "/></g></g></g><g fill="#ffffff" fill-opacity="1"><g transform="translate(203.606033, 225.372206)"><g><path d="M 10.796875 0.4375 C 7.910156 0.4375 5.59375 -0.328125 3.84375 -1.859375 C 2.101562 -3.390625 1.234375 -5.445312 1.234375 -8.03125 C 1.234375 -8.5 1.304688 -9.203125 1.453125 -10.140625 L 2.53125 -16.296875 C 3.144531 -19.785156 4.546875 -22.5 6.734375 -24.4375 C 8.929688 -26.382812 11.6875 -27.359375 15 -27.359375 L 17.90625 -27.359375 C 19.164062 -27.359375 20.332031 -27.140625 21.40625 -26.703125 C 22.488281 -26.273438 23.375 -25.664062 24.0625 -24.875 L 26.390625 -37.765625 L 33.71875 -37.765625 L 27.03125 0 L 20.234375 0 L 20.828125 -3.5625 C 19.890625 -2.300781 18.816406 -1.316406 17.609375 -0.609375 C 16.410156 0.0859375 15.179688 0.4375 13.921875 0.4375 Z M 15.328125 -5.875 C 16.765625 -5.875 18.078125 -6.414062 19.265625 -7.5 C 20.453125 -8.582031 21.28125 -9.984375 21.75 -11.703125 L 22.609375 -16.40625 C 22.609375 -17.800781 22.253906 -18.921875 21.546875 -19.765625 C 20.847656 -20.617188 19.925781 -21.046875 18.78125 -21.046875 L 15.53125 -21.046875 C 14.019531 -21.046875 12.757812 -20.578125 11.75 -19.640625 C 10.75 -18.703125 10.101562 -17.40625 9.8125 -15.75 L 8.90625 -10.6875 C 8.832031 -10.101562 8.796875 -9.707031 8.796875 -9.5 C 8.796875 -8.382812 9.109375 -7.5 9.734375 -6.84375 C 10.367188 -6.195312 11.222656 -5.875 12.296875 -5.875 Z M 15.328125 -5.875 "/></g></g></g><g fill="#ffffff" fill-opacity="1"><g transform="translate(236.197799, 225.372206)"><g><path d="M 10.625 -29.453125 C 9.4375 -29.453125 8.484375 -29.773438 7.765625 -30.421875 C 7.046875 -31.078125 6.6875 -31.925781 6.6875 -32.96875 C 6.6875 -34.550781 7.179688 -35.835938 8.171875 -36.828125 C 9.160156 -37.816406 10.484375 -38.3125 12.140625 -38.3125 C 13.328125 -38.3125 14.28125 -37.984375 15 -37.328125 C 15.71875 -36.679688 16.078125 -35.835938 16.078125 -34.796875 C 16.078125 -33.210938 15.582031 -31.925781 14.59375 -30.9375 C 13.601562 -29.945312 12.28125 -29.453125 10.625 -29.453125 Z M 6.46875 -26.921875 L 13.8125 -26.921875 L 9.0625 0 L 1.71875 0 Z M 6.46875 -26.921875 "/></g></g></g><g fill="#ffffff" fill-opacity="1"><g transform="translate(251.738246, 225.372206)"><g><path d="M 9.921875 0.4375 C 7.191406 0.4375 5.035156 -0.132812 3.453125 -1.28125 C 1.867188 -2.4375 1.078125 -3.988281 1.078125 -5.9375 C 1.078125 -6.21875 1.113281 -6.648438 1.1875 -7.234375 L 1.5625 -9.328125 C 2 -11.671875 3.125 -13.5 4.9375 -14.8125 C 6.75 -16.125 9.078125 -16.78125 11.921875 -16.78125 L 15.15625 -16.78125 C 16.195312 -16.78125 17.320312 -16.65625 18.53125 -16.40625 C 19.738281 -16.15625 20.789062 -15.8125 21.6875 -15.375 L 22.171875 -18.1875 C 22.210938 -18.320312 22.234375 -18.535156 22.234375 -18.828125 C 22.234375 -19.546875 21.988281 -20.117188 21.5 -20.546875 C 21.007812 -20.984375 20.335938 -21.203125 19.484375 -21.203125 L 14.890625 -21.203125 C 13.847656 -21.203125 12.984375 -20.96875 12.296875 -20.5 C 11.617188 -20.03125 11.207031 -19.398438 11.0625 -18.609375 L 3.9375 -18.609375 C 4.4375 -21.378906 5.675781 -23.53125 7.65625 -25.0625 C 9.632812 -26.59375 12.15625 -27.359375 15.21875 -27.359375 L 19.796875 -27.359375 C 22.816406 -27.359375 25.21875 -26.671875 27 -25.296875 C 28.78125 -23.929688 29.671875 -22.097656 29.671875 -19.796875 C 29.671875 -19.253906 29.617188 -18.71875 29.515625 -18.1875 L 26.28125 0 L 19.484375 0 L 20.078125 -3.234375 C 18.953125 -2.085938 17.769531 -1.1875 16.53125 -0.53125 C 15.289062 0.113281 14.132812 0.4375 13.0625 0.4375 Z M 14.03125 -5.171875 C 15.320312 -5.171875 16.5625 -5.515625 17.75 -6.203125 C 18.9375 -6.890625 19.875 -7.804688 20.5625 -8.953125 L 20.71875 -9.875 C 20.25 -10.300781 19.507812 -10.640625 18.5 -10.890625 C 17.5 -11.148438 16.421875 -11.28125 15.265625 -11.28125 L 11.921875 -11.28125 C 11.023438 -11.28125 10.285156 -11.070312 9.703125 -10.65625 C 9.128906 -10.238281 8.769531 -9.65625 8.625 -8.90625 L 8.359375 -7.5 C 8.210938 -6.8125 8.398438 -6.25 8.921875 -5.8125 C 9.453125 -5.382812 10.203125 -5.171875 11.171875 -5.171875 Z M 14.03125 -5.171875 "/></g></g></g><g fill="#ffffff" fill-opacity="1"><g transform="translate(283.250829, 225.372206)"><g><path d="M 5.5 -26.921875 L 12.296875 -26.921875 L 11.703125 -23.6875 C 12.742188 -24.832031 13.875 -25.726562 15.09375 -26.375 C 16.320312 -27.03125 17.515625 -27.359375 18.671875 -27.359375 L 21.6875 -27.359375 C 24.382812 -27.359375 26.515625 -26.644531 28.078125 -25.21875 C 29.640625 -23.800781 30.421875 -21.90625 30.421875 -19.53125 C 30.421875 -18.914062 30.367188 -18.25 30.265625 -17.53125 L 27.1875 0 L 19.859375 0 L 22.875 -17.265625 C 22.914062 -17.484375 22.9375 -17.789062 22.9375 -18.1875 C 22.9375 -19.050781 22.707031 -19.734375 22.25 -20.234375 C 21.800781 -20.734375 21.179688 -20.984375 20.390625 -20.984375 L 17.15625 -20.984375 C 15.894531 -20.984375 14.679688 -20.523438 13.515625 -19.609375 C 12.347656 -18.691406 11.476562 -17.5 10.90625 -16.03125 L 8.09375 0 L 0.75 0 Z M 5.5 -26.921875 "/></g></g></g><g fill="#ffffff" fill-opacity="1"><g transform="translate(315.626771, 225.372206)"><g><path d="M 12.515625 0 C 9.859375 0 7.878906 -0.507812 6.578125 -1.53125 C 5.285156 -2.5625 4.640625 -4.15625 4.640625 -6.3125 C 4.640625 -7 4.726562 -7.84375 4.90625 -8.84375 L 7.015625 -20.671875 L 2.265625 -20.671875 L 3.34375 -26.921875 L 8.3125 -26.921875 L 9.765625 -35.0625 L 16.890625 -35.0625 L 15.4375 -26.921875 L 22.390625 -26.921875 L 21.3125 -20.671875 L 14.34375 -20.671875 L 12.296875 -9.171875 C 12.222656 -8.671875 12.1875 -8.328125 12.1875 -8.140625 C 12.1875 -6.890625 12.851562 -6.265625 14.1875 -6.265625 L 18.78125 -6.265625 L 17.640625 0 Z M 12.515625 0 "/></g></g></g><g fill="#ffffff" fill-opacity="1"><g transform="translate(146.788179, 247.225961)"><g><path d="M 6.0625 -4.25 C 6.488281 -3.738281 6.703125 -3.171875 6.703125 -2.546875 C 6.691406 -1.828125 6.445312 -1.222656 5.96875 -0.734375 C 5.488281 -0.253906 4.90625 -0.015625 4.21875 -0.015625 L 1.375 -0.015625 C 0.875 -0.015625 0.582031 -0.148438 0.5 -0.421875 C 0.457031 -0.546875 0.4375 -0.734375 0.4375 -0.984375 L 0.4375 -6.96875 C 0.4375 -7.144531 0.441406 -7.269531 0.453125 -7.34375 C 0.460938 -7.425781 0.492188 -7.523438 0.546875 -7.640625 C 0.648438 -7.828125 0.929688 -7.921875 1.390625 -7.921875 L 4.109375 -7.921875 C 4.773438 -7.921875 5.332031 -7.691406 5.78125 -7.234375 C 6.25 -6.765625 6.484375 -6.203125 6.484375 -5.546875 C 6.484375 -5.078125 6.34375 -4.644531 6.0625 -4.25 Z M 4.796875 -2.65625 C 4.796875 -2.832031 4.773438 -2.96875 4.734375 -3.0625 C 4.691406 -3.164062 4.625 -3.238281 4.53125 -3.28125 C 4.382812 -3.34375 4.179688 -3.375 3.921875 -3.375 C 3.671875 -3.375 3.476562 -3.421875 3.34375 -3.515625 C 3.21875 -3.617188 3.15625 -3.828125 3.15625 -4.140625 C 3.15625 -4.453125 3.21875 -4.65625 3.34375 -4.75 C 3.476562 -4.851562 3.703125 -4.90625 4.015625 -4.90625 C 4.304688 -4.90625 4.476562 -4.984375 4.53125 -5.140625 C 4.550781 -5.222656 4.5625 -5.351562 4.5625 -5.53125 C 4.5625 -5.707031 4.5 -5.832031 4.375 -5.90625 C 4.257812 -5.976562 4.085938 -6.015625 3.859375 -6.015625 L 2.34375 -6.015625 L 2.34375 -1.921875 L 4.109375 -1.921875 C 4.566406 -1.921875 4.796875 -2.164062 4.796875 -2.65625 Z M 4.796875 -2.65625 "/></g></g></g><g fill="#ffffff" fill-opacity="1"><g transform="translate(153.759869, 247.225961)"><g><path d="M 4.296875 -5.625 C 4.429688 -5.582031 4.539062 -5.507812 4.625 -5.40625 C 4.71875 -5.300781 4.765625 -5.132812 4.765625 -4.90625 C 4.765625 -4.675781 4.695312 -4.421875 4.5625 -4.140625 C 4.425781 -3.867188 4.226562 -3.734375 3.96875 -3.734375 C 3.84375 -3.734375 3.71875 -3.757812 3.59375 -3.8125 C 3.476562 -3.875 3.320312 -3.90625 3.125 -3.90625 C 2.9375 -3.90625 2.753906 -3.835938 2.578125 -3.703125 C 2.410156 -3.566406 2.328125 -3.398438 2.328125 -3.203125 L 2.328125 -0.9375 C 2.328125 -0.769531 2.320312 -0.644531 2.3125 -0.5625 C 2.300781 -0.476562 2.269531 -0.382812 2.21875 -0.28125 C 2.101562 -0.09375 1.820312 0 1.375 0 C 1.03125 0 0.78125 -0.0625 0.625 -0.1875 C 0.507812 -0.28125 0.445312 -0.429688 0.4375 -0.640625 C 0.4375 -0.710938 0.4375 -0.816406 0.4375 -0.953125 L 0.4375 -4.75 C 0.4375 -4.914062 0.441406 -5.039062 0.453125 -5.125 C 0.460938 -5.207031 0.492188 -5.296875 0.546875 -5.390625 C 0.640625 -5.585938 0.914062 -5.6875 1.375 -5.6875 C 1.8125 -5.6875 2.082031 -5.601562 2.1875 -5.4375 C 2.269531 -5.320312 2.3125 -5.203125 2.3125 -5.078125 C 2.34375 -5.128906 2.390625 -5.191406 2.453125 -5.265625 C 2.523438 -5.335938 2.671875 -5.4375 2.890625 -5.5625 C 3.117188 -5.6875 3.316406 -5.75 3.484375 -5.75 C 3.660156 -5.75 3.804688 -5.738281 3.921875 -5.71875 C 4.035156 -5.695312 4.160156 -5.664062 4.296875 -5.625 Z M 4.296875 -5.625 "/></g></g></g><g fill="#ffffff" fill-opacity="1"><g transform="translate(158.691851, 247.225961)"><g><path d="M 5.921875 -3.515625 C 5.921875 -3.078125 5.8125 -2.75 5.59375 -2.53125 C 5.375 -2.320312 5.128906 -2.21875 4.859375 -2.21875 L 2.296875 -2.21875 C 2.296875 -2.019531 2.414062 -1.851562 2.65625 -1.71875 C 2.894531 -1.582031 3.132812 -1.515625 3.375 -1.515625 C 3.789062 -1.515625 4.113281 -1.554688 4.34375 -1.640625 L 4.46875 -1.6875 C 4.644531 -1.757812 4.789062 -1.796875 4.90625 -1.796875 C 5.132812 -1.796875 5.332031 -1.632812 5.5 -1.3125 C 5.59375 -1.125 5.640625 -0.960938 5.640625 -0.828125 C 5.640625 -0.179688 4.875 0.140625 3.34375 0.140625 C 2.800781 0.140625 2.320312 0.0507812 1.90625 -0.125 C 1.5 -0.3125 1.179688 -0.554688 0.953125 -0.859375 C 0.492188 -1.441406 0.265625 -2.09375 0.265625 -2.8125 C 0.265625 -3.71875 0.554688 -4.441406 1.140625 -4.984375 C 1.734375 -5.535156 2.46875 -5.8125 3.34375 -5.8125 C 4.34375 -5.8125 5.078125 -5.457031 5.546875 -4.75 C 5.796875 -4.375 5.921875 -3.960938 5.921875 -3.515625 Z M 3.640625 -3.203125 C 3.910156 -3.203125 4.046875 -3.316406 4.046875 -3.546875 C 4.046875 -3.710938 3.984375 -3.847656 3.859375 -3.953125 C 3.734375 -4.054688 3.550781 -4.109375 3.3125 -4.109375 C 3.082031 -4.109375 2.851562 -4.007812 2.625 -3.8125 C 2.394531 -3.625 2.28125 -3.421875 2.28125 -3.203125 Z M 3.640625 -3.203125 "/></g></g></g><g fill="#ffffff" fill-opacity="1"><g transform="translate(164.875719, 247.225961)"><g><path d="M 0.4375 -4.734375 C 0.4375 -4.898438 0.441406 -5.023438 0.453125 -5.109375 C 0.460938 -5.191406 0.492188 -5.285156 0.546875 -5.390625 C 0.640625 -5.578125 0.914062 -5.671875 1.375 -5.671875 C 1.726562 -5.671875 1.972656 -5.613281 2.109375 -5.5 C 2.234375 -5.394531 2.300781 -5.238281 2.3125 -5.03125 C 2.320312 -4.957031 2.328125 -4.851562 2.328125 -4.71875 L 2.328125 -0.9375 C 2.328125 -0.769531 2.316406 -0.644531 2.296875 -0.5625 C 2.285156 -0.476562 2.253906 -0.382812 2.203125 -0.28125 C 2.109375 -0.09375 1.832031 0 1.375 0 C 0.914062 0 0.640625 -0.0976562 0.546875 -0.296875 C 0.492188 -0.398438 0.460938 -0.488281 0.453125 -0.5625 C 0.441406 -0.644531 0.4375 -0.773438 0.4375 -0.953125 Z M 2.203125 -6.75 C 2.148438 -6.644531 2.054688 -6.566406 1.921875 -6.515625 C 1.785156 -6.472656 1.601562 -6.453125 1.375 -6.453125 C 1.144531 -6.453125 0.960938 -6.472656 0.828125 -6.515625 C 0.691406 -6.566406 0.597656 -6.644531 0.546875 -6.75 C 0.492188 -6.851562 0.460938 -6.945312 0.453125 -7.03125 C 0.441406 -7.113281 0.4375 -7.238281 0.4375 -7.40625 C 0.4375 -7.570312 0.441406 -7.695312 0.453125 -7.78125 C 0.460938 -7.863281 0.492188 -7.953125 0.546875 -8.046875 C 0.640625 -8.242188 0.914062 -8.34375 1.375 -8.34375 C 1.832031 -8.34375 2.109375 -8.242188 2.203125 -8.046875 C 2.253906 -7.941406 2.285156 -7.847656 2.296875 -7.765625 C 2.316406 -7.679688 2.328125 -7.554688 2.328125 -7.390625 C 2.328125 -7.222656 2.316406 -7.097656 2.296875 -7.015625 C 2.285156 -6.941406 2.253906 -6.851562 2.203125 -6.75 Z M 2.203125 -6.75 "/></g></g></g><g fill="#ffffff" fill-opacity="1"><g transform="translate(167.627706, 247.225961)"><g><path d="M 3.265625 -1.90625 L 5.125 -1.90625 C 5.40625 -1.90625 5.609375 -1.867188 5.734375 -1.796875 C 5.859375 -1.722656 5.941406 -1.617188 5.984375 -1.484375 C 6.035156 -1.347656 6.0625 -1.164062 6.0625 -0.9375 C 6.0625 -0.71875 6.035156 -0.535156 5.984375 -0.390625 C 5.941406 -0.253906 5.867188 -0.160156 5.765625 -0.109375 C 5.660156 -0.0546875 5.566406 -0.0234375 5.484375 -0.015625 C 5.398438 -0.00390625 5.273438 0 5.109375 0 L 1.203125 0 C 0.953125 0 0.734375 -0.09375 0.546875 -0.28125 C 0.359375 -0.46875 0.265625 -0.691406 0.265625 -0.953125 C 0.265625 -1.210938 0.359375 -1.429688 0.546875 -1.609375 C 0.734375 -1.796875 1.019531 -2.0625 1.40625 -2.40625 C 1.800781 -2.75 2.15625 -3.054688 2.46875 -3.328125 C 2.789062 -3.609375 2.960938 -3.765625 2.984375 -3.796875 L 1.46875 -3.796875 C 1.0625 -3.796875 0.800781 -3.863281 0.6875 -4 C 0.5625 -4.164062 0.5 -4.375 0.5 -4.625 C 0.5 -4.882812 0.515625 -5.078125 0.546875 -5.203125 C 0.585938 -5.328125 0.632812 -5.421875 0.6875 -5.484375 C 0.738281 -5.546875 0.8125 -5.597656 0.90625 -5.640625 C 1.03125 -5.671875 1.21875 -5.6875 1.46875 -5.6875 L 4.984375 -5.6875 C 5.234375 -5.6875 5.453125 -5.597656 5.640625 -5.421875 C 5.828125 -5.242188 5.921875 -5.019531 5.921875 -4.75 C 5.921875 -4.476562 5.8125 -4.238281 5.59375 -4.03125 C 5.375 -3.820312 4.597656 -3.113281 3.265625 -1.90625 Z M 3.265625 -1.90625 "/></g></g></g><g fill="#ffffff" fill-opacity="1"><g transform="translate(173.951861, 247.225961)"><g><path d="M 3.578125 -5.671875 C 4.304688 -5.671875 4.90625 -5.394531 5.375 -4.84375 C 5.851562 -4.300781 6.09375 -3.632812 6.09375 -2.84375 L 6.09375 -0.9375 C 6.09375 -0.769531 6.085938 -0.644531 6.078125 -0.5625 C 6.066406 -0.476562 6.035156 -0.382812 5.984375 -0.28125 C 5.890625 -0.09375 5.613281 0 5.15625 0 C 4.707031 0 4.429688 -0.09375 4.328125 -0.28125 C 4.273438 -0.382812 4.238281 -0.476562 4.21875 -0.5625 C 4.207031 -0.65625 4.203125 -0.785156 4.203125 -0.953125 L 4.203125 -2.84375 C 4.203125 -3.144531 4.117188 -3.378906 3.953125 -3.546875 C 3.796875 -3.710938 3.585938 -3.796875 3.328125 -3.796875 C 3.078125 -3.796875 2.851562 -3.71875 2.65625 -3.5625 C 2.457031 -3.40625 2.347656 -3.226562 2.328125 -3.03125 L 2.328125 -0.9375 C 2.328125 -0.769531 2.316406 -0.644531 2.296875 -0.5625 C 2.285156 -0.476562 2.253906 -0.382812 2.203125 -0.28125 C 2.109375 -0.09375 1.832031 0 1.375 0 C 0.914062 0 0.640625 -0.0976562 0.546875 -0.296875 C 0.492188 -0.398438 0.460938 -0.488281 0.453125 -0.5625 C 0.441406 -0.644531 0.4375 -0.773438 0.4375 -0.953125 L 0.4375 -7.40625 C 0.4375 -7.570312 0.441406 -7.695312 0.453125 -7.78125 C 0.460938 -7.863281 0.492188 -7.953125 0.546875 -8.046875 C 0.640625 -8.242188 0.914062 -8.34375 1.375 -8.34375 C 1.832031 -8.34375 2.109375 -8.242188 2.203125 -8.046875 C 2.253906 -7.941406 2.285156 -7.847656 2.296875 -7.765625 C 2.316406 -7.679688 2.328125 -7.554688 2.328125 -7.390625 L 2.328125 -5.015625 C 2.679688 -5.453125 3.097656 -5.671875 3.578125 -5.671875 Z M 3.578125 -5.671875 "/></g></g></g><g fill="#ffffff" fill-opacity="1"><g transform="translate(180.481075, 247.225961)"><g/></g></g><g fill="#ffffff" fill-opacity="1"><g transform="translate(183.211476, 247.225961)"><g><path d="M 2.34375 -1.90625 L 5.671875 -1.90625 C 5.835938 -1.90625 5.960938 -1.898438 6.046875 -1.890625 C 6.128906 -1.878906 6.222656 -1.847656 6.328125 -1.796875 C 6.523438 -1.691406 6.625 -1.410156 6.625 -0.953125 C 6.625 -0.441406 6.488281 -0.144531 6.21875 -0.0625 C 6.09375 -0.0195312 5.90625 0 5.65625 0 L 1.375 0 C 0.875 0 0.582031 -0.132812 0.5 -0.40625 C 0.457031 -0.519531 0.4375 -0.703125 0.4375 -0.953125 L 0.4375 -6.96875 C 0.4375 -7.332031 0.503906 -7.578125 0.640625 -7.703125 C 0.773438 -7.835938 1.035156 -7.90625 1.421875 -7.90625 L 5.671875 -7.90625 C 5.835938 -7.90625 5.960938 -7.898438 6.046875 -7.890625 C 6.128906 -7.878906 6.222656 -7.847656 6.328125 -7.796875 C 6.523438 -7.691406 6.625 -7.410156 6.625 -6.953125 C 6.625 -6.453125 6.488281 -6.15625 6.21875 -6.0625 C 6.09375 -6.019531 5.90625 -6 5.65625 -6 L 2.34375 -6 L 2.34375 -4.90625 L 4.484375 -4.90625 C 4.648438 -4.90625 4.773438 -4.898438 4.859375 -4.890625 C 4.941406 -4.878906 5.035156 -4.847656 5.140625 -4.796875 C 5.335938 -4.691406 5.4375 -4.410156 5.4375 -3.953125 C 5.4375 -3.453125 5.296875 -3.15625 5.015625 -3.0625 C 4.898438 -3.019531 4.710938 -3 4.453125 -3 L 2.34375 -3 Z M 2.34375 -1.90625 "/></g></g></g><g fill="#ffffff" fill-opacity="1"><g transform="translate(190.096823, 247.225961)"><g><path d="M 0.46875 -0.5 C 0.332031 -0.59375 0.265625 -0.734375 0.265625 -0.921875 C 0.265625 -1.109375 0.40625 -1.390625 0.6875 -1.765625 C 0.757812 -1.890625 0.882812 -1.953125 1.0625 -1.953125 C 1.238281 -1.953125 1.476562 -1.863281 1.78125 -1.6875 C 2.082031 -1.507812 2.359375 -1.421875 2.609375 -1.421875 C 3.046875 -1.421875 3.265625 -1.507812 3.265625 -1.6875 C 3.265625 -1.820312 3.019531 -1.921875 2.53125 -1.984375 C 2.082031 -2.046875 1.632812 -2.21875 1.1875 -2.5 C 0.976562 -2.625 0.804688 -2.820312 0.671875 -3.09375 C 0.535156 -3.375 0.46875 -3.707031 0.46875 -4.09375 C 0.46875 -5.226562 1.25 -5.796875 2.8125 -5.796875 C 3.320312 -5.796875 3.847656 -5.675781 4.390625 -5.4375 C 4.640625 -5.320312 4.765625 -5.175781 4.765625 -5 C 4.765625 -4.820312 4.679688 -4.609375 4.515625 -4.359375 C 4.359375 -4.109375 4.195312 -3.984375 4.03125 -3.984375 C 3.945312 -3.984375 3.785156 -4.035156 3.546875 -4.140625 C 3.316406 -4.253906 3.066406 -4.3125 2.796875 -4.3125 C 2.367188 -4.3125 2.15625 -4.234375 2.15625 -4.078125 C 2.15625 -3.859375 2.398438 -3.71875 2.890625 -3.65625 C 3.367188 -3.601562 3.832031 -3.460938 4.28125 -3.234375 C 4.488281 -3.140625 4.660156 -2.96875 4.796875 -2.71875 C 4.941406 -2.46875 5.015625 -2.15625 5.015625 -1.78125 C 5.015625 -1.40625 4.941406 -1.085938 4.796875 -0.828125 C 4.660156 -0.566406 4.460938 -0.367188 4.203125 -0.234375 C 3.742188 -0.015625 3.164062 0.09375 2.46875 0.09375 C 1.78125 0.09375 1.113281 -0.101562 0.46875 -0.5 Z M 0.46875 -0.5 "/></g></g></g><g fill="#ffffff" fill-opacity="1"><g transform="translate(195.374152, 247.225961)"><g><path d="M 3.734375 -3.78125 L 3.03125 -3.828125 L 3.03125 -2.328125 C 3.03125 -2.140625 3.0625 -2 3.125 -1.90625 C 3.1875 -1.820312 3.300781 -1.78125 3.46875 -1.78125 C 3.632812 -1.78125 3.765625 -1.773438 3.859375 -1.765625 C 3.953125 -1.753906 4.046875 -1.71875 4.140625 -1.65625 C 4.304688 -1.5625 4.390625 -1.320312 4.390625 -0.9375 C 4.390625 -0.488281 4.289062 -0.210938 4.09375 -0.109375 C 3.988281 -0.0546875 3.894531 -0.0234375 3.8125 -0.015625 C 3.726562 -0.00390625 3.601562 0 3.4375 0 C 2.695312 0 2.128906 -0.164062 1.734375 -0.5 C 1.347656 -0.84375 1.15625 -1.414062 1.15625 -2.21875 L 1.15625 -3.828125 C 1.019531 -3.804688 0.867188 -3.796875 0.703125 -3.796875 C 0.546875 -3.796875 0.414062 -3.851562 0.3125 -3.96875 C 0.207031 -4.09375 0.15625 -4.300781 0.15625 -4.59375 C 0.15625 -4.894531 0.171875 -5.109375 0.203125 -5.234375 C 0.242188 -5.367188 0.296875 -5.46875 0.359375 -5.53125 C 0.484375 -5.625 0.628906 -5.671875 0.796875 -5.671875 L 1.15625 -5.625 L 1.15625 -6.734375 C 1.15625 -6.898438 1.160156 -7.019531 1.171875 -7.09375 C 1.179688 -7.175781 1.21875 -7.265625 1.28125 -7.359375 C 1.375 -7.546875 1.648438 -7.640625 2.109375 -7.640625 C 2.597656 -7.640625 2.890625 -7.503906 2.984375 -7.234375 C 3.015625 -7.117188 3.03125 -6.9375 3.03125 -6.6875 L 3.03125 -5.625 C 3.351562 -5.65625 3.59375 -5.671875 3.75 -5.671875 C 3.914062 -5.671875 4.039062 -5.664062 4.125 -5.65625 C 4.207031 -5.644531 4.300781 -5.609375 4.40625 -5.546875 C 4.59375 -5.453125 4.6875 -5.175781 4.6875 -4.71875 C 4.6875 -4.257812 4.585938 -3.984375 4.390625 -3.890625 C 4.285156 -3.835938 4.191406 -3.804688 4.109375 -3.796875 C 4.023438 -3.785156 3.898438 -3.78125 3.734375 -3.78125 Z M 3.734375 -3.78125 "/></g></g></g><g fill="#ffffff" fill-opacity="1"><g transform="translate(200.21979, 247.225961)"><g><path d="M 2.109375 -1.78125 C 2.222656 -1.65625 2.28125 -1.40625 2.28125 -1.03125 L 2.28125 -0.984375 C 2.28125 -0.804688 2.273438 -0.675781 2.265625 -0.59375 C 2.253906 -0.507812 2.21875 -0.410156 2.15625 -0.296875 C 2.050781 -0.0859375 1.78125 0.015625 1.34375 0.015625 C 0.90625 0.015625 0.613281 -0.0507812 0.46875 -0.1875 C 0.332031 -0.332031 0.265625 -0.59375 0.265625 -0.96875 L 0.265625 -1.015625 C 0.265625 -1.179688 0.269531 -1.304688 0.28125 -1.390625 C 0.289062 -1.472656 0.328125 -1.570312 0.390625 -1.6875 C 0.492188 -1.90625 0.765625 -2.015625 1.203125 -2.015625 C 1.640625 -2.015625 1.941406 -1.9375 2.109375 -1.78125 Z M 2.109375 -1.78125 "/></g></g></g><g fill="#ffffff" fill-opacity="1"><g transform="translate(202.777518, 247.225961)"><g><path d="M 5.46875 -1.90625 C 5.757812 -1.90625 5.96875 -1.867188 6.09375 -1.796875 C 6.21875 -1.722656 6.300781 -1.617188 6.34375 -1.484375 C 6.382812 -1.347656 6.40625 -1.164062 6.40625 -0.9375 C 6.40625 -0.707031 6.378906 -0.523438 6.328125 -0.390625 C 6.285156 -0.253906 6.210938 -0.160156 6.109375 -0.109375 C 5.953125 -0.0234375 5.726562 0.015625 5.4375 0.015625 L 1.21875 0.015625 C 0.957031 0.015625 0.734375 -0.078125 0.546875 -0.265625 C 0.359375 -0.460938 0.265625 -0.691406 0.265625 -0.953125 C 0.265625 -1.335938 0.398438 -1.691406 0.671875 -2.015625 C 0.941406 -2.347656 1.265625 -2.628906 1.640625 -2.859375 C 2.023438 -3.097656 2.410156 -3.328125 2.796875 -3.546875 C 3.179688 -3.773438 3.503906 -4.035156 3.765625 -4.328125 C 4.035156 -4.617188 4.171875 -4.925781 4.171875 -5.25 C 4.171875 -5.3125 4.144531 -5.398438 4.09375 -5.515625 C 4.050781 -5.640625 4 -5.738281 3.9375 -5.8125 C 3.875 -5.882812 3.773438 -5.953125 3.640625 -6.015625 C 3.515625 -6.085938 3.335938 -6.125 3.109375 -6.125 C 2.878906 -6.125 2.675781 -6.035156 2.5 -5.859375 C 2.332031 -5.691406 2.238281 -5.523438 2.21875 -5.359375 L 2.1875 -5.125 L 2.1875 -5.046875 C 2.1875 -4.890625 2.179688 -4.769531 2.171875 -4.6875 C 2.160156 -4.613281 2.125 -4.523438 2.0625 -4.421875 C 1.957031 -4.253906 1.675781 -4.171875 1.21875 -4.171875 C 0.71875 -4.171875 0.421875 -4.304688 0.328125 -4.578125 C 0.285156 -4.691406 0.265625 -4.875 0.265625 -5.125 C 0.265625 -5.875 0.53125 -6.546875 1.0625 -7.140625 C 1.601562 -7.734375 2.304688 -8.03125 3.171875 -8.03125 C 4.046875 -8.03125 4.75 -7.726562 5.28125 -7.125 C 5.820312 -6.53125 6.09375 -5.847656 6.09375 -5.078125 C 6.09375 -4.660156 6.003906 -4.269531 5.828125 -3.90625 C 5.648438 -3.539062 5.4375 -3.242188 5.1875 -3.015625 C 4.65625 -2.546875 4.175781 -2.226562 3.75 -2.0625 L 3.484375 -1.953125 L 3.484375 -1.90625 Z M 5.46875 -1.90625 "/></g></g></g><g fill="#ffffff" fill-opacity="1"><g transform="translate(209.34989, 247.225961)"><g><path d="M 1.09375 -7 C 1.300781 -7.289062 1.59375 -7.535156 1.96875 -7.734375 C 2.34375 -7.929688 2.78125 -8.03125 3.28125 -8.03125 C 3.78125 -8.03125 4.210938 -7.929688 4.578125 -7.734375 C 4.953125 -7.546875 5.242188 -7.304688 5.453125 -7.015625 C 5.671875 -6.734375 5.84375 -6.394531 5.96875 -6 C 6.1875 -5.351562 6.296875 -4.664062 6.296875 -3.9375 C 6.296875 -2.632812 6.015625 -1.601562 5.453125 -0.84375 C 5.242188 -0.550781 4.953125 -0.3125 4.578125 -0.125 C 4.210938 0.0625 3.785156 0.15625 3.296875 0.15625 C 2.804688 0.15625 2.367188 0.0625 1.984375 -0.125 C 1.609375 -0.320312 1.3125 -0.5625 1.09375 -0.84375 C 0.882812 -1.125 0.710938 -1.457031 0.578125 -1.84375 C 0.367188 -2.46875 0.265625 -3.171875 0.265625 -3.953125 C 0.265625 -4.671875 0.347656 -5.285156 0.515625 -5.796875 C 0.691406 -6.304688 0.882812 -6.707031 1.09375 -7 Z M 3.265625 -1.765625 C 4.015625 -1.765625 4.390625 -2.472656 4.390625 -3.890625 L 4.390625 -3.953125 C 4.390625 -5.398438 4.019531 -6.125 3.28125 -6.125 C 2.550781 -6.125 2.1875 -5.394531 2.1875 -3.9375 C 2.1875 -2.488281 2.546875 -1.765625 3.265625 -1.765625 Z M 3.265625 -1.765625 "/></g></g></g><g fill="#ffffff" fill-opacity="1"><g transform="translate(215.911476, 247.225961)"><g><path d="M 5.46875 -1.90625 C 5.757812 -1.90625 5.96875 -1.867188 6.09375 -1.796875 C 6.21875 -1.722656 6.300781 -1.617188 6.34375 -1.484375 C 6.382812 -1.347656 6.40625 -1.164062 6.40625 -0.9375 C 6.40625 -0.707031 6.378906 -0.523438 6.328125 -0.390625 C 6.285156 -0.253906 6.210938 -0.160156 6.109375 -0.109375 C 5.953125 -0.0234375 5.726562 0.015625 5.4375 0.015625 L 1.21875 0.015625 C 0.957031 0.015625 0.734375 -0.078125 0.546875 -0.265625 C 0.359375 -0.460938 0.265625 -0.691406 0.265625 -0.953125 C 0.265625 -1.335938 0.398438 -1.691406 0.671875 -2.015625 C 0.941406 -2.347656 1.265625 -2.628906 1.640625 -2.859375 C 2.023438 -3.097656 2.410156 -3.328125 2.796875 -3.546875 C 3.179688 -3.773438 3.503906 -4.035156 3.765625 -4.328125 C 4.035156 -4.617188 4.171875 -4.925781 4.171875 -5.25 C 4.171875 -5.3125 4.144531 -5.398438 4.09375 -5.515625 C 4.050781 -5.640625 4 -5.738281 3.9375 -5.8125 C 3.875 -5.882812 3.773438 -5.953125 3.640625 -6.015625 C 3.515625 -6.085938 3.335938 -6.125 3.109375 -6.125 C 2.878906 -6.125 2.675781 -6.035156 2.5 -5.859375 C 2.332031 -5.691406 2.238281 -5.523438 2.21875 -5.359375 L 2.1875 -5.125 L 2.1875 -5.046875 C 2.1875 -4.890625 2.179688 -4.769531 2.171875 -4.6875 C 2.160156 -4.613281 2.125 -4.523438 2.0625 -4.421875 C 1.957031 -4.253906 1.675781 -4.171875 1.21875 -4.171875 C 0.71875 -4.171875 0.421875 -4.304688 0.328125 -4.578125 C 0.285156 -4.691406 0.265625 -4.875 0.265625 -5.125 C 0.265625 -5.875 0.53125 -6.546875 1.0625 -7.140625 C 1.601562 -7.734375 2.304688 -8.03125 3.171875 -8.03125 C 4.046875 -8.03125 4.75 -7.726562 5.28125 -7.125 C 5.820312 -6.53125 6.09375 -5.847656 6.09375 -5.078125 C 6.09375 -4.660156 6.003906 -4.269531 5.828125 -3.90625 C 5.648438 -3.539062 5.4375 -3.242188 5.1875 -3.015625 C 4.65625 -2.546875 4.175781 -2.226562 3.75 -2.0625 L 3.484375 -1.953125 L 3.484375 -1.90625 Z M 5.46875 -1.90625 "/></g></g></g><g fill="#ffffff" fill-opacity="1"><g transform="translate(222.483848, 247.225961)"><g><path d="M 1.6875 -7.9375 L 3.328125 -7.921875 L 4.34375 -7.921875 C 4.507812 -7.921875 4.632812 -7.914062 4.71875 -7.90625 C 4.800781 -7.894531 4.894531 -7.863281 5 -7.8125 C 5.195312 -7.707031 5.296875 -7.414062 5.296875 -6.9375 C 5.296875 -6.507812 5.203125 -6.25 5.015625 -6.15625 C 4.921875 -6.09375 4.832031 -6.054688 4.75 -6.046875 C 4.675781 -6.035156 4.5625 -6.03125 4.40625 -6.03125 L 2.515625 -6.03125 C 2.503906 -5.945312 2.46875 -5.675781 2.40625 -5.21875 C 2.488281 -5.226562 2.613281 -5.234375 2.78125 -5.234375 C 3.46875 -5.234375 4.082031 -4.972656 4.625 -4.453125 C 5.175781 -3.941406 5.453125 -3.3125 5.453125 -2.5625 C 5.453125 -1.820312 5.191406 -1.179688 4.671875 -0.640625 C 4.148438 -0.109375 3.507812 0.15625 2.75 0.15625 C 2.070312 0.15625 1.460938 -0.015625 0.921875 -0.359375 C 0.804688 -0.429688 0.71875 -0.5 0.65625 -0.5625 L 0.578125 -0.640625 C 0.296875 -0.878906 0.15625 -1.09375 0.15625 -1.28125 C 0.15625 -1.476562 0.289062 -1.710938 0.5625 -1.984375 C 0.78125 -2.222656 0.988281 -2.34375 1.1875 -2.34375 C 1.382812 -2.34375 1.625 -2.226562 1.90625 -2 C 2.039062 -1.84375 2.265625 -1.765625 2.578125 -1.765625 C 2.898438 -1.765625 3.140625 -1.832031 3.296875 -1.96875 C 3.453125 -2.113281 3.53125 -2.304688 3.53125 -2.546875 C 3.53125 -2.785156 3.441406 -2.972656 3.265625 -3.109375 C 3.097656 -3.253906 2.90625 -3.328125 2.6875 -3.328125 C 2.476562 -3.328125 2.3125 -3.257812 2.1875 -3.125 C 1.988281 -2.957031 1.789062 -2.875 1.59375 -2.875 C 1.394531 -2.875 1.164062 -2.941406 0.90625 -3.078125 C 0.65625 -3.222656 0.488281 -3.335938 0.40625 -3.421875 C 0.332031 -3.503906 0.296875 -3.59375 0.296875 -3.6875 C 0.296875 -3.78125 0.363281 -4.359375 0.5 -5.421875 C 0.644531 -6.484375 0.722656 -7.035156 0.734375 -7.078125 C 0.742188 -7.117188 0.769531 -7.191406 0.8125 -7.296875 C 0.851562 -7.410156 0.90625 -7.507812 0.96875 -7.59375 C 1.03125 -7.6875 1.125 -7.765625 1.25 -7.828125 C 1.375 -7.898438 1.519531 -7.9375 1.6875 -7.9375 Z M 1.6875 -7.9375 "/></g></g></g></svg>