<svg xmlns="http://www.w3.org/2000/svg" xmlns:xlink="http://www.w3.org/1999/xlink" width="500" zoomAndPan="magnify" viewBox="0 0 375 374.999991" height="500" preserveAspectRatio="xMidYMid meet" version="1.0"><defs><g/><clipPath id="7ac96ac0ea"><path d="M 112.5 137.4375 L 262.5 137.4375 L 262.5 187.6875 L 112.5 187.6875 Z M 112.5 137.4375 " clip-rule="nonzero"/></clipPath></defs><g clip-path="url(#7ac96ac0ea)"><path fill="#ffffff" d="M 112.5 187.550781 L 153.867188 156.753906 L 195.085938 137.46875 L 211.664062 154.71875 L 219.582031 151.9375 L 230 162.507812 L 242.617188 162.507812 L 262.417969 184.394531 L 237.335938 182.730469 L 245.257812 180.316406 L 219.4375 154.71875 L 191.328125 176.050781 L 180.714844 178.832031 L 206.824219 157.6875 L 192.449219 141.914062 L 145.796875 175.863281 Z M 112.5 187.550781 " fill-opacity="1" fill-rule="nonzero"/></g><path fill="#ffffff" d="M 219.542969 169.105469 L 227.273438 169.105469 L 227.273438 178.574219 L 219.542969 178.574219 Z M 219.542969 169.105469 " fill-opacity="1" fill-rule="nonzero"/><path fill="#ffffff" d="M 209.640625 169.105469 L 217.367188 169.105469 L 217.367188 178.574219 L 209.640625 178.574219 Z M 209.640625 169.105469 " fill-opacity="1" fill-rule="nonzero"/><g fill="#ffffff" fill-opacity="1"><g transform="translate(103.934528, 213.073815)"><g><path d="M 3.453125 0 C 2.671875 0 2.054688 -0.191406 1.609375 -0.578125 C 1.171875 -0.972656 0.953125 -1.507812 0.953125 -2.1875 C 0.953125 -2.3125 0.972656 -2.515625 1.015625 -2.796875 L 4.234375 -21 L 8.375 -21 L 5.3125 -3.59375 L 16.703125 -3.59375 L 16.078125 0 Z M 3.453125 0 "/></g></g></g><g fill="#ffffff" fill-opacity="1"><g transform="translate(121.574508, 213.073815)"><g><path d="M 6.59375 0.234375 C 4.832031 0.234375 3.414062 -0.207031 2.34375 -1.09375 C 1.28125 -1.988281 0.75 -3.164062 0.75 -4.625 C 0.75 -4.976562 0.78125 -5.335938 0.84375 -5.703125 L 1.46875 -9.203125 C 1.8125 -11.085938 2.601562 -12.554688 3.84375 -13.609375 C 5.082031 -14.671875 6.640625 -15.203125 8.515625 -15.203125 L 11.1875 -15.203125 C 13.007812 -15.203125 14.445312 -14.765625 15.5 -13.890625 C 16.5625 -13.023438 17.09375 -11.851562 17.09375 -10.375 C 17.09375 -10.15625 17.054688 -9.765625 16.984375 -9.203125 L 16.34375 -5.703125 C 16.007812 -3.816406 15.234375 -2.351562 14.015625 -1.3125 C 12.796875 -0.28125 11.210938 0.234375 9.265625 0.234375 Z M 9.421875 -3.265625 C 10.179688 -3.265625 10.820312 -3.507812 11.34375 -4 C 11.863281 -4.488281 12.191406 -5.164062 12.328125 -6.03125 L 12.84375 -8.9375 C 12.882812 -9.257812 12.90625 -9.476562 12.90625 -9.59375 C 12.90625 -10.238281 12.726562 -10.75 12.375 -11.125 C 12.019531 -11.507812 11.535156 -11.703125 10.921875 -11.703125 L 8.375 -11.703125 C 7.613281 -11.703125 6.976562 -11.457031 6.46875 -10.96875 C 5.957031 -10.476562 5.628906 -9.800781 5.484375 -8.9375 L 4.984375 -6.03125 C 4.941406 -5.707031 4.921875 -5.476562 4.921875 -5.34375 C 4.921875 -4.695312 5.09375 -4.1875 5.4375 -3.8125 C 5.789062 -3.445312 6.269531 -3.265625 6.875 -3.265625 Z M 9.421875 -3.265625 "/></g></g></g><g fill="#ffffff" fill-opacity="1"><g transform="translate(139.394491, 213.073815)"><g><path d="M 5.578125 6.09375 C 3.960938 6.09375 2.664062 5.6875 1.6875 4.875 C 0.71875 4.0625 0.234375 2.988281 0.234375 1.65625 C 0.234375 1.425781 0.242188 1.253906 0.265625 1.140625 L 4.296875 1.140625 C 4.273438 1.578125 4.394531 1.929688 4.65625 2.203125 C 4.925781 2.472656 5.296875 2.609375 5.765625 2.609375 L 8.453125 2.609375 C 9.140625 2.609375 9.710938 2.363281 10.171875 1.875 C 10.628906 1.382812 10.925781 0.707031 11.0625 -0.15625 L 11.3125 -1.5625 C 10.832031 -1.125 10.3125 -0.773438 9.75 -0.515625 C 9.1875 -0.253906 8.6875 -0.125 8.25 -0.125 L 6.234375 -0.125 C 4.578125 -0.125 3.253906 -0.550781 2.265625 -1.40625 C 1.273438 -2.269531 0.78125 -3.421875 0.78125 -4.859375 C 0.78125 -5.242188 0.8125 -5.625 0.875 -6 L 1.40625 -9.0625 C 1.75 -11 2.523438 -12.503906 3.734375 -13.578125 C 4.941406 -14.660156 6.457031 -15.203125 8.28125 -15.203125 L 10.015625 -15.203125 C 10.816406 -15.203125 11.550781 -15.039062 12.21875 -14.71875 C 12.894531 -14.40625 13.390625 -13.988281 13.703125 -13.46875 L 13.984375 -14.96875 L 17.765625 -14.96875 L 15.15625 -0.15625 C 14.8125 1.8125 14.035156 3.34375 12.828125 4.4375 C 11.617188 5.539062 10.101562 6.09375 8.28125 6.09375 Z M 8.84375 -3.5625 C 9.601562 -3.5625 10.296875 -3.875 10.921875 -4.5 C 11.554688 -5.132812 12.003906 -5.960938 12.265625 -6.984375 L 12.625 -9.0625 C 12.6875 -9.863281 12.523438 -10.503906 12.140625 -10.984375 C 11.765625 -11.460938 11.226562 -11.703125 10.53125 -11.703125 L 8.4375 -11.703125 C 7.65625 -11.703125 6.992188 -11.441406 6.453125 -10.921875 C 5.910156 -10.398438 5.570312 -9.679688 5.4375 -8.765625 L 5.015625 -6.296875 C 4.972656 -5.972656 4.953125 -5.753906 4.953125 -5.640625 C 4.953125 -5.003906 5.113281 -4.5 5.4375 -4.125 C 5.769531 -3.75 6.21875 -3.5625 6.78125 -3.5625 Z M 8.84375 -3.5625 "/></g></g></g><g fill="#ffffff" fill-opacity="1"><g transform="translate(157.574471, 213.073815)"><g><path d="M 5.90625 -16.375 C 5.25 -16.375 4.71875 -16.550781 4.3125 -16.90625 C 3.914062 -17.269531 3.71875 -17.742188 3.71875 -18.328125 C 3.71875 -19.210938 3.992188 -19.925781 4.546875 -20.46875 C 5.097656 -21.019531 5.832031 -21.296875 6.75 -21.296875 C 7.40625 -21.296875 7.929688 -21.113281 8.328125 -20.75 C 8.734375 -20.394531 8.9375 -19.925781 8.9375 -19.34375 C 8.9375 -18.46875 8.660156 -17.753906 8.109375 -17.203125 C 7.566406 -16.648438 6.832031 -16.375 5.90625 -16.375 Z M 3.59375 -14.96875 L 7.6875 -14.96875 L 5.046875 0 L 0.953125 0 Z M 3.59375 -14.96875 "/></g></g></g><g fill="#ffffff" fill-opacity="1"><g transform="translate(166.214462, 213.073815)"><g><path d="M 6.953125 0 C 5.472656 0 4.375 -0.28125 3.65625 -0.84375 C 2.9375 -1.414062 2.578125 -2.304688 2.578125 -3.515625 C 2.578125 -3.890625 2.628906 -4.359375 2.734375 -4.921875 L 3.90625 -11.484375 L 1.265625 -11.484375 L 1.859375 -14.96875 L 4.625 -14.96875 L 5.4375 -19.5 L 9.390625 -19.5 L 8.578125 -14.96875 L 12.453125 -14.96875 L 11.84375 -11.484375 L 7.984375 -11.484375 L 6.84375 -5.09375 C 6.800781 -4.820312 6.78125 -4.632812 6.78125 -4.53125 C 6.78125 -3.832031 7.148438 -3.484375 7.890625 -3.484375 L 10.4375 -3.484375 L 9.8125 0 Z M 6.953125 0 "/></g></g></g><g fill="#ffffff" fill-opacity="1"><g transform="translate(178.514445, 213.073815)"><g><path d="M 5.84375 0.234375 C 4.382812 0.234375 3.226562 -0.175781 2.375 -1 C 1.53125 -1.832031 1.109375 -2.9375 1.109375 -4.3125 C 1.109375 -4.59375 1.148438 -5.015625 1.234375 -5.578125 L 2.875 -14.96875 L 6.953125 -14.96875 L 5.3125 -5.515625 C 5.269531 -5.234375 5.25 -5.046875 5.25 -4.953125 C 5.25 -4.453125 5.378906 -4.050781 5.640625 -3.75 C 5.898438 -3.445312 6.257812 -3.296875 6.71875 -3.296875 L 8.453125 -3.296875 C 9.140625 -3.296875 9.785156 -3.566406 10.390625 -4.109375 C 11.003906 -4.648438 11.507812 -5.378906 11.90625 -6.296875 L 13.4375 -14.96875 L 17.515625 -14.96875 L 14.875 0 L 11.09375 0 L 11.4375 -1.921875 C 10.832031 -1.265625 10.203125 -0.738281 9.546875 -0.34375 C 8.898438 0.0390625 8.304688 0.234375 7.765625 0.234375 Z M 5.84375 0.234375 "/></g></g></g><g fill="#ffffff" fill-opacity="1"><g transform="translate(196.454431, 213.073815)"><g><path d="M 6 0.234375 C 4.394531 0.234375 3.109375 -0.1875 2.140625 -1.03125 C 1.171875 -1.882812 0.6875 -3.03125 0.6875 -4.46875 C 0.6875 -4.726562 0.726562 -5.117188 0.8125 -5.640625 L 1.40625 -9.0625 C 1.75 -11 2.53125 -12.503906 3.75 -13.578125 C 4.96875 -14.660156 6.5 -15.203125 8.34375 -15.203125 L 9.953125 -15.203125 C 10.660156 -15.203125 11.3125 -15.082031 11.90625 -14.84375 C 12.507812 -14.601562 13 -14.265625 13.375 -13.828125 L 14.671875 -21 L 18.75 -21 L 15.03125 0 L 11.25 0 L 11.578125 -1.984375 C 11.054688 -1.285156 10.460938 -0.738281 9.796875 -0.34375 C 9.128906 0.0390625 8.441406 0.234375 7.734375 0.234375 Z M 8.515625 -3.265625 C 9.316406 -3.265625 10.046875 -3.5625 10.703125 -4.15625 C 11.367188 -4.757812 11.832031 -5.546875 12.09375 -6.515625 L 12.5625 -9.125 C 12.5625 -9.90625 12.367188 -10.53125 11.984375 -11 C 11.597656 -11.46875 11.082031 -11.703125 10.4375 -11.703125 L 8.640625 -11.703125 C 7.796875 -11.703125 7.09375 -11.441406 6.53125 -10.921875 C 5.976562 -10.398438 5.617188 -9.679688 5.453125 -8.765625 L 4.953125 -5.9375 C 4.910156 -5.613281 4.890625 -5.394531 4.890625 -5.28125 C 4.890625 -4.65625 5.0625 -4.160156 5.40625 -3.796875 C 5.757812 -3.441406 6.238281 -3.265625 6.84375 -3.265625 Z M 8.515625 -3.265625 "/></g></g></g><g fill="#ffffff" fill-opacity="1"><g transform="translate(214.57441, 213.073815)"><g><path d="M 5.90625 -16.375 C 5.25 -16.375 4.71875 -16.550781 4.3125 -16.90625 C 3.914062 -17.269531 3.71875 -17.742188 3.71875 -18.328125 C 3.71875 -19.210938 3.992188 -19.925781 4.546875 -20.46875 C 5.097656 -21.019531 5.832031 -21.296875 6.75 -21.296875 C 7.40625 -21.296875 7.929688 -21.113281 8.328125 -20.75 C 8.734375 -20.394531 8.9375 -19.925781 8.9375 -19.34375 C 8.9375 -18.46875 8.660156 -17.753906 8.109375 -17.203125 C 7.566406 -16.648438 6.832031 -16.375 5.90625 -16.375 Z M 3.59375 -14.96875 L 7.6875 -14.96875 L 5.046875 0 L 0.953125 0 Z M 3.59375 -14.96875 "/></g></g></g><g fill="#ffffff" fill-opacity="1"><g transform="translate(223.214401, 213.073815)"><g><path d="M 5.515625 0.234375 C 3.992188 0.234375 2.789062 -0.0820312 1.90625 -0.71875 C 1.03125 -1.363281 0.59375 -2.222656 0.59375 -3.296875 C 0.59375 -3.460938 0.613281 -3.703125 0.65625 -4.015625 L 0.875 -5.1875 C 1.113281 -6.488281 1.738281 -7.503906 2.75 -8.234375 C 3.757812 -8.960938 5.050781 -9.328125 6.625 -9.328125 L 8.4375 -9.328125 C 9.007812 -9.328125 9.628906 -9.253906 10.296875 -9.109375 C 10.972656 -8.972656 11.5625 -8.785156 12.0625 -8.546875 L 12.328125 -10.109375 C 12.347656 -10.191406 12.359375 -10.3125 12.359375 -10.46875 C 12.359375 -10.863281 12.222656 -11.179688 11.953125 -11.421875 C 11.679688 -11.671875 11.304688 -11.796875 10.828125 -11.796875 L 8.28125 -11.796875 C 7.695312 -11.796875 7.210938 -11.664062 6.828125 -11.40625 C 6.453125 -11.144531 6.226562 -10.789062 6.15625 -10.34375 L 2.1875 -10.34375 C 2.46875 -11.882812 3.15625 -13.078125 4.25 -13.921875 C 5.351562 -14.773438 6.753906 -15.203125 8.453125 -15.203125 L 11.015625 -15.203125 C 12.691406 -15.203125 14.023438 -14.820312 15.015625 -14.0625 C 16.003906 -13.3125 16.5 -12.296875 16.5 -11.015625 C 16.5 -10.710938 16.46875 -10.410156 16.40625 -10.109375 L 14.609375 0 L 10.828125 0 L 11.15625 -1.796875 C 10.539062 -1.160156 9.882812 -0.660156 9.1875 -0.296875 C 8.5 0.0546875 7.859375 0.234375 7.265625 0.234375 Z M 7.796875 -2.875 C 8.515625 -2.875 9.203125 -3.0625 9.859375 -3.4375 C 10.523438 -3.820312 11.050781 -4.335938 11.4375 -4.984375 L 11.515625 -5.484375 C 11.253906 -5.722656 10.84375 -5.910156 10.28125 -6.046875 C 9.726562 -6.191406 9.128906 -6.265625 8.484375 -6.265625 L 6.625 -6.265625 C 6.125 -6.265625 5.710938 -6.148438 5.390625 -5.921875 C 5.078125 -5.691406 4.878906 -5.367188 4.796875 -4.953125 L 4.65625 -4.171875 C 4.570312 -3.785156 4.675781 -3.472656 4.96875 -3.234375 C 5.257812 -2.992188 5.671875 -2.875 6.203125 -2.875 Z M 7.796875 -2.875 "/></g></g></g><g fill="#ffffff" fill-opacity="1"><g transform="translate(240.734389, 213.073815)"><g><path d="M 3.0625 -14.96875 L 6.84375 -14.96875 L 6.515625 -13.171875 C 7.085938 -13.804688 7.710938 -14.300781 8.390625 -14.65625 C 9.078125 -15.019531 9.738281 -15.203125 10.375 -15.203125 L 12.0625 -15.203125 C 13.5625 -15.203125 14.742188 -14.804688 15.609375 -14.015625 C 16.484375 -13.234375 16.921875 -12.179688 16.921875 -10.859375 C 16.921875 -10.515625 16.890625 -10.144531 16.828125 -9.75 L 15.125 0 L 11.046875 0 L 12.71875 -9.59375 C 12.738281 -9.71875 12.75 -9.890625 12.75 -10.109375 C 12.75 -10.585938 12.625 -10.96875 12.375 -11.25 C 12.125 -11.53125 11.78125 -11.671875 11.34375 -11.671875 L 9.546875 -11.671875 C 8.835938 -11.671875 8.160156 -11.414062 7.515625 -10.90625 C 6.867188 -10.394531 6.382812 -9.726562 6.0625 -8.90625 L 4.5 0 L 0.421875 0 Z M 3.0625 -14.96875 "/></g></g></g><g fill="#ffffff" fill-opacity="1"><g transform="translate(258.734376, 213.073815)"><g><path d="M 6.953125 0 C 5.472656 0 4.375 -0.28125 3.65625 -0.84375 C 2.9375 -1.414062 2.578125 -2.304688 2.578125 -3.515625 C 2.578125 -3.890625 2.628906 -4.359375 2.734375 -4.921875 L 3.90625 -11.484375 L 1.265625 -11.484375 L 1.859375 -14.96875 L 4.625 -14.96875 L 5.4375 -19.5 L 9.390625 -19.5 L 8.578125 -14.96875 L 12.453125 -14.96875 L 11.84375 -11.484375 L 7.984375 -11.484375 L 6.84375 -5.09375 C 6.800781 -4.820312 6.78125 -4.632812 6.78125 -4.53125 C 6.78125 -3.832031 7.148438 -3.484375 7.890625 -3.484375 L 10.4375 -3.484375 L 9.8125 0 Z M 6.953125 0 "/></g></g></g><g fill="#ffffff" fill-opacity="1"><g transform="translate(164.631146, 225.223824)"><g><path d="M 3.375 -2.359375 C 3.601562 -2.078125 3.71875 -1.765625 3.71875 -1.421875 C 3.71875 -1.015625 3.582031 -0.675781 3.3125 -0.40625 C 3.050781 -0.132812 2.726562 0 2.34375 0 L 0.765625 0 C 0.484375 0 0.320312 -0.078125 0.28125 -0.234375 C 0.25 -0.304688 0.234375 -0.410156 0.234375 -0.546875 L 0.234375 -3.875 C 0.234375 -3.96875 0.238281 -4.035156 0.25 -4.078125 C 0.257812 -4.128906 0.28125 -4.179688 0.3125 -4.234375 C 0.363281 -4.347656 0.519531 -4.40625 0.78125 -4.40625 L 2.28125 -4.40625 C 2.65625 -4.40625 2.960938 -4.273438 3.203125 -4.015625 C 3.460938 -3.753906 3.59375 -3.441406 3.59375 -3.078125 C 3.59375 -2.816406 3.519531 -2.578125 3.375 -2.359375 Z M 2.65625 -1.46875 C 2.65625 -1.570312 2.644531 -1.648438 2.625 -1.703125 C 2.601562 -1.753906 2.566406 -1.796875 2.515625 -1.828125 C 2.441406 -1.859375 2.332031 -1.875 2.1875 -1.875 C 2.039062 -1.875 1.929688 -1.898438 1.859375 -1.953125 C 1.785156 -2.015625 1.75 -2.128906 1.75 -2.296875 C 1.75 -2.472656 1.785156 -2.585938 1.859375 -2.640625 C 1.929688 -2.703125 2.054688 -2.734375 2.234375 -2.734375 C 2.390625 -2.734375 2.484375 -2.773438 2.515625 -2.859375 C 2.523438 -2.898438 2.53125 -2.96875 2.53125 -3.0625 C 2.53125 -3.164062 2.5 -3.238281 2.4375 -3.28125 C 2.375 -3.320312 2.273438 -3.34375 2.140625 -3.34375 L 1.296875 -3.34375 L 1.296875 -1.0625 L 2.28125 -1.0625 C 2.53125 -1.0625 2.65625 -1.195312 2.65625 -1.46875 Z M 2.65625 -1.46875 "/></g></g></g><g fill="#ffffff" fill-opacity="1"><g transform="translate(168.507182, 225.223824)"><g><path d="M 2.390625 -3.125 C 2.460938 -3.101562 2.523438 -3.0625 2.578125 -3 C 2.628906 -2.945312 2.65625 -2.851562 2.65625 -2.71875 C 2.65625 -2.59375 2.613281 -2.453125 2.53125 -2.296875 C 2.457031 -2.148438 2.347656 -2.078125 2.203125 -2.078125 C 2.128906 -2.078125 2.0625 -2.09375 2 -2.125 C 1.9375 -2.15625 1.847656 -2.171875 1.734375 -2.171875 C 1.628906 -2.171875 1.53125 -2.128906 1.4375 -2.046875 C 1.34375 -1.972656 1.296875 -1.882812 1.296875 -1.78125 L 1.296875 -0.515625 C 1.296875 -0.429688 1.289062 -0.363281 1.28125 -0.3125 C 1.28125 -0.269531 1.265625 -0.21875 1.234375 -0.15625 C 1.171875 -0.0507812 1.015625 0 0.765625 0 C 0.566406 0 0.425781 -0.0351562 0.34375 -0.109375 C 0.28125 -0.160156 0.242188 -0.242188 0.234375 -0.359375 C 0.234375 -0.398438 0.234375 -0.457031 0.234375 -0.53125 L 0.234375 -2.640625 C 0.234375 -2.734375 0.238281 -2.800781 0.25 -2.84375 C 0.257812 -2.894531 0.273438 -2.945312 0.296875 -3 C 0.359375 -3.101562 0.515625 -3.15625 0.765625 -3.15625 C 1.003906 -3.15625 1.15625 -3.113281 1.21875 -3.03125 C 1.257812 -2.957031 1.28125 -2.890625 1.28125 -2.828125 C 1.300781 -2.859375 1.328125 -2.890625 1.359375 -2.921875 C 1.398438 -2.960938 1.484375 -3.015625 1.609375 -3.078125 C 1.734375 -3.148438 1.84375 -3.1875 1.9375 -3.1875 C 2.03125 -3.1875 2.109375 -3.179688 2.171875 -3.171875 C 2.242188 -3.160156 2.316406 -3.144531 2.390625 -3.125 Z M 2.390625 -3.125 "/></g></g></g><g fill="#ffffff" fill-opacity="1"><g transform="translate(171.249206, 225.223824)"><g><path d="M 3.28125 -1.953125 C 3.28125 -1.710938 3.21875 -1.53125 3.09375 -1.40625 C 2.976562 -1.289062 2.847656 -1.234375 2.703125 -1.234375 L 1.28125 -1.234375 C 1.28125 -1.117188 1.34375 -1.023438 1.46875 -0.953125 C 1.601562 -0.878906 1.738281 -0.84375 1.875 -0.84375 C 2.101562 -0.84375 2.285156 -0.863281 2.421875 -0.90625 L 2.484375 -0.9375 C 2.578125 -0.976562 2.65625 -1 2.71875 -1 C 2.851562 -1 2.960938 -0.910156 3.046875 -0.734375 C 3.097656 -0.617188 3.125 -0.523438 3.125 -0.453125 C 3.125 -0.0976562 2.703125 0.078125 1.859375 0.078125 C 1.554688 0.078125 1.289062 0.0234375 1.0625 -0.078125 C 0.832031 -0.179688 0.65625 -0.316406 0.53125 -0.484375 C 0.28125 -0.804688 0.15625 -1.164062 0.15625 -1.5625 C 0.15625 -2.070312 0.316406 -2.476562 0.640625 -2.78125 C 0.960938 -3.082031 1.367188 -3.234375 1.859375 -3.234375 C 2.410156 -3.234375 2.816406 -3.035156 3.078125 -2.640625 C 3.210938 -2.429688 3.28125 -2.203125 3.28125 -1.953125 Z M 2.015625 -1.78125 C 2.171875 -1.78125 2.25 -1.84375 2.25 -1.96875 C 2.25 -2.0625 2.210938 -2.132812 2.140625 -2.1875 C 2.078125 -2.25 1.976562 -2.28125 1.84375 -2.28125 C 1.71875 -2.28125 1.585938 -2.226562 1.453125 -2.125 C 1.328125 -2.019531 1.265625 -1.90625 1.265625 -1.78125 Z M 2.015625 -1.78125 "/></g></g></g><g fill="#ffffff" fill-opacity="1"><g transform="translate(174.687238, 225.223824)"><g><path d="M 0.234375 -2.640625 C 0.234375 -2.722656 0.238281 -2.785156 0.25 -2.828125 C 0.257812 -2.878906 0.273438 -2.9375 0.296875 -3 C 0.359375 -3.101562 0.515625 -3.15625 0.765625 -3.15625 C 0.960938 -3.15625 1.097656 -3.117188 1.171875 -3.046875 C 1.242188 -2.992188 1.28125 -2.910156 1.28125 -2.796875 C 1.289062 -2.753906 1.296875 -2.695312 1.296875 -2.625 L 1.296875 -0.515625 C 1.296875 -0.429688 1.289062 -0.363281 1.28125 -0.3125 C 1.269531 -0.269531 1.25 -0.21875 1.21875 -0.15625 C 1.164062 -0.0507812 1.015625 0 0.765625 0 C 0.515625 0 0.359375 -0.0507812 0.296875 -0.15625 C 0.273438 -0.21875 0.257812 -0.269531 0.25 -0.3125 C 0.238281 -0.363281 0.234375 -0.4375 0.234375 -0.53125 Z M 1.21875 -3.734375 C 1.195312 -3.679688 1.144531 -3.644531 1.0625 -3.625 C 0.988281 -3.601562 0.890625 -3.59375 0.765625 -3.59375 C 0.640625 -3.59375 0.535156 -3.601562 0.453125 -3.625 C 0.378906 -3.644531 0.328125 -3.6875 0.296875 -3.75 C 0.273438 -3.8125 0.257812 -3.863281 0.25 -3.90625 C 0.238281 -3.957031 0.234375 -4.023438 0.234375 -4.109375 C 0.234375 -4.203125 0.238281 -4.269531 0.25 -4.3125 C 0.257812 -4.363281 0.273438 -4.414062 0.296875 -4.46875 C 0.359375 -4.582031 0.515625 -4.640625 0.765625 -4.640625 C 1.015625 -4.640625 1.164062 -4.582031 1.21875 -4.46875 C 1.25 -4.414062 1.269531 -4.363281 1.28125 -4.3125 C 1.289062 -4.269531 1.296875 -4.203125 1.296875 -4.109375 C 1.296875 -4.015625 1.289062 -3.941406 1.28125 -3.890625 C 1.269531 -3.847656 1.25 -3.796875 1.21875 -3.734375 Z M 1.21875 -3.734375 "/></g></g></g><g fill="#ffffff" fill-opacity="1"><g transform="translate(176.217255, 225.223824)"><g><path d="M 1.8125 -1.0625 L 2.84375 -1.0625 C 3 -1.0625 3.113281 -1.039062 3.1875 -1 C 3.257812 -0.957031 3.304688 -0.894531 3.328125 -0.8125 C 3.347656 -0.738281 3.359375 -0.640625 3.359375 -0.515625 C 3.359375 -0.398438 3.347656 -0.300781 3.328125 -0.21875 C 3.304688 -0.144531 3.265625 -0.09375 3.203125 -0.0625 C 3.140625 -0.03125 3.082031 -0.0078125 3.03125 0 C 2.988281 0 2.925781 0 2.84375 0 L 0.671875 0 C 0.535156 0 0.414062 -0.0507812 0.3125 -0.15625 C 0.207031 -0.257812 0.15625 -0.382812 0.15625 -0.53125 C 0.15625 -0.675781 0.207031 -0.796875 0.3125 -0.890625 C 0.414062 -0.992188 0.570312 -1.140625 0.78125 -1.328125 C 1 -1.523438 1.195312 -1.703125 1.375 -1.859375 C 1.550781 -2.015625 1.644531 -2.097656 1.65625 -2.109375 L 0.8125 -2.109375 C 0.582031 -2.109375 0.441406 -2.144531 0.390625 -2.21875 C 0.316406 -2.3125 0.28125 -2.429688 0.28125 -2.578125 C 0.28125 -2.722656 0.289062 -2.828125 0.3125 -2.890625 C 0.332031 -2.960938 0.351562 -3.015625 0.375 -3.046875 C 0.40625 -3.085938 0.445312 -3.113281 0.5 -3.125 C 0.570312 -3.144531 0.675781 -3.15625 0.8125 -3.15625 L 2.765625 -3.15625 C 2.898438 -3.15625 3.019531 -3.101562 3.125 -3 C 3.226562 -2.90625 3.28125 -2.78125 3.28125 -2.625 C 3.28125 -2.476562 3.21875 -2.347656 3.09375 -2.234375 C 2.976562 -2.117188 2.550781 -1.726562 1.8125 -1.0625 Z M 1.8125 -1.0625 "/></g></g></g><g fill="#ffffff" fill-opacity="1"><g transform="translate(179.733282, 225.223824)"><g><path d="M 1.984375 -3.15625 C 2.390625 -3.15625 2.722656 -3 2.984375 -2.6875 C 3.253906 -2.382812 3.390625 -2.015625 3.390625 -1.578125 L 3.390625 -0.515625 C 3.390625 -0.429688 3.382812 -0.363281 3.375 -0.3125 C 3.375 -0.269531 3.359375 -0.21875 3.328125 -0.15625 C 3.273438 -0.0507812 3.117188 0 2.859375 0 C 2.617188 0 2.46875 -0.0507812 2.40625 -0.15625 C 2.375 -0.21875 2.351562 -0.269531 2.34375 -0.3125 C 2.34375 -0.363281 2.34375 -0.4375 2.34375 -0.53125 L 2.34375 -1.578125 C 2.34375 -1.742188 2.296875 -1.875 2.203125 -1.96875 C 2.109375 -2.0625 1.988281 -2.109375 1.84375 -2.109375 C 1.707031 -2.109375 1.582031 -2.0625 1.46875 -1.96875 C 1.363281 -1.882812 1.304688 -1.789062 1.296875 -1.6875 L 1.296875 -0.515625 C 1.296875 -0.429688 1.289062 -0.363281 1.28125 -0.3125 C 1.269531 -0.269531 1.25 -0.21875 1.21875 -0.15625 C 1.164062 -0.0507812 1.015625 0 0.765625 0 C 0.515625 0 0.359375 -0.0507812 0.296875 -0.15625 C 0.273438 -0.21875 0.257812 -0.269531 0.25 -0.3125 C 0.238281 -0.363281 0.234375 -0.4375 0.234375 -0.53125 L 0.234375 -4.109375 C 0.234375 -4.203125 0.238281 -4.269531 0.25 -4.3125 C 0.257812 -4.363281 0.273438 -4.414062 0.296875 -4.46875 C 0.359375 -4.582031 0.515625 -4.640625 0.765625 -4.640625 C 1.015625 -4.640625 1.164062 -4.582031 1.21875 -4.46875 C 1.25 -4.414062 1.269531 -4.363281 1.28125 -4.3125 C 1.289062 -4.269531 1.296875 -4.203125 1.296875 -4.109375 L 1.296875 -2.78125 C 1.492188 -3.03125 1.722656 -3.15625 1.984375 -3.15625 Z M 1.984375 -3.15625 "/></g></g></g><g fill="#ffffff" fill-opacity="1"><g transform="translate(183.363316, 225.223824)"><g/></g></g><g fill="#ffffff" fill-opacity="1"><g transform="translate(184.881331, 225.223824)"><g><path d="M 1.296875 -1.0625 L 3.15625 -1.0625 C 3.238281 -1.0625 3.300781 -1.054688 3.34375 -1.046875 C 3.394531 -1.046875 3.453125 -1.03125 3.515625 -1 C 3.617188 -0.9375 3.671875 -0.78125 3.671875 -0.53125 C 3.671875 -0.25 3.597656 -0.0820312 3.453125 -0.03125 C 3.390625 -0.0078125 3.285156 0 3.140625 0 L 0.765625 0 C 0.484375 0 0.320312 -0.078125 0.28125 -0.234375 C 0.25 -0.296875 0.234375 -0.394531 0.234375 -0.53125 L 0.234375 -3.875 C 0.234375 -4.070312 0.269531 -4.207031 0.34375 -4.28125 C 0.425781 -4.351562 0.570312 -4.390625 0.78125 -4.390625 L 3.15625 -4.390625 C 3.238281 -4.390625 3.300781 -4.382812 3.34375 -4.375 C 3.394531 -4.375 3.453125 -4.359375 3.515625 -4.328125 C 3.617188 -4.273438 3.671875 -4.117188 3.671875 -3.859375 C 3.671875 -3.578125 3.597656 -3.414062 3.453125 -3.375 C 3.390625 -3.351562 3.285156 -3.34375 3.140625 -3.34375 L 1.296875 -3.34375 L 1.296875 -2.734375 L 2.484375 -2.734375 C 2.578125 -2.734375 2.644531 -2.726562 2.6875 -2.71875 C 2.738281 -2.71875 2.796875 -2.695312 2.859375 -2.65625 C 2.960938 -2.601562 3.015625 -2.453125 3.015625 -2.203125 C 3.015625 -1.921875 2.941406 -1.753906 2.796875 -1.703125 C 2.722656 -1.679688 2.617188 -1.671875 2.484375 -1.671875 L 1.296875 -1.671875 Z M 1.296875 -1.0625 "/></g></g></g><g fill="#ffffff" fill-opacity="1"><g transform="translate(188.709363, 225.223824)"><g><path d="M 0.265625 -0.28125 C 0.191406 -0.332031 0.15625 -0.410156 0.15625 -0.515625 C 0.15625 -0.617188 0.226562 -0.773438 0.375 -0.984375 C 0.414062 -1.054688 0.484375 -1.09375 0.578125 -1.09375 C 0.679688 -1.09375 0.816406 -1.039062 0.984375 -0.9375 C 1.148438 -0.84375 1.304688 -0.796875 1.453125 -0.796875 C 1.691406 -0.796875 1.8125 -0.84375 1.8125 -0.9375 C 1.8125 -1.007812 1.675781 -1.066406 1.40625 -1.109375 C 1.15625 -1.140625 0.90625 -1.234375 0.65625 -1.390625 C 0.539062 -1.460938 0.445312 -1.570312 0.375 -1.71875 C 0.300781 -1.875 0.265625 -2.0625 0.265625 -2.28125 C 0.265625 -2.90625 0.695312 -3.21875 1.5625 -3.21875 C 1.84375 -3.21875 2.132812 -3.148438 2.4375 -3.015625 C 2.570312 -2.953125 2.640625 -2.875 2.640625 -2.78125 C 2.640625 -2.6875 2.59375 -2.566406 2.5 -2.421875 C 2.414062 -2.285156 2.332031 -2.21875 2.25 -2.21875 C 2.195312 -2.21875 2.101562 -2.242188 1.96875 -2.296875 C 1.84375 -2.359375 1.703125 -2.390625 1.546875 -2.390625 C 1.316406 -2.390625 1.203125 -2.347656 1.203125 -2.265625 C 1.203125 -2.140625 1.335938 -2.0625 1.609375 -2.03125 C 1.867188 -2 2.125 -1.921875 2.375 -1.796875 C 2.488281 -1.742188 2.582031 -1.644531 2.65625 -1.5 C 2.738281 -1.363281 2.78125 -1.191406 2.78125 -0.984375 C 2.78125 -0.773438 2.738281 -0.597656 2.65625 -0.453125 C 2.582031 -0.304688 2.476562 -0.195312 2.34375 -0.125 C 2.082031 -0.0078125 1.757812 0.046875 1.375 0.046875 C 0.988281 0.046875 0.617188 -0.0625 0.265625 -0.28125 Z M 0.265625 -0.28125 "/></g></g></g><g fill="#ffffff" fill-opacity="1"><g transform="translate(191.643389, 225.223824)"><g><path d="M 2.078125 -2.09375 L 1.6875 -2.125 L 1.6875 -1.296875 C 1.6875 -1.191406 1.703125 -1.113281 1.734375 -1.0625 C 1.765625 -1.007812 1.828125 -0.984375 1.921875 -0.984375 C 2.015625 -0.984375 2.085938 -0.976562 2.140625 -0.96875 C 2.191406 -0.96875 2.242188 -0.953125 2.296875 -0.921875 C 2.390625 -0.867188 2.4375 -0.734375 2.4375 -0.515625 C 2.4375 -0.265625 2.382812 -0.113281 2.28125 -0.0625 C 2.21875 -0.03125 2.160156 -0.0078125 2.109375 0 C 2.066406 0 2 0 1.90625 0 C 1.5 0 1.1875 -0.09375 0.96875 -0.28125 C 0.75 -0.46875 0.640625 -0.785156 0.640625 -1.234375 L 0.640625 -2.125 C 0.566406 -2.113281 0.484375 -2.109375 0.390625 -2.109375 C 0.304688 -2.109375 0.234375 -2.140625 0.171875 -2.203125 C 0.117188 -2.273438 0.09375 -2.390625 0.09375 -2.546875 C 0.09375 -2.710938 0.101562 -2.832031 0.125 -2.90625 C 0.144531 -2.988281 0.171875 -3.046875 0.203125 -3.078125 C 0.265625 -3.128906 0.34375 -3.15625 0.4375 -3.15625 L 0.640625 -3.125 L 0.640625 -3.75 C 0.640625 -3.832031 0.640625 -3.894531 0.640625 -3.9375 C 0.648438 -3.988281 0.671875 -4.039062 0.703125 -4.09375 C 0.753906 -4.1875 0.910156 -4.234375 1.171875 -4.234375 C 1.441406 -4.234375 1.601562 -4.160156 1.65625 -4.015625 C 1.675781 -3.953125 1.6875 -3.851562 1.6875 -3.71875 L 1.6875 -3.125 C 1.863281 -3.144531 1.992188 -3.15625 2.078125 -3.15625 C 2.171875 -3.15625 2.238281 -3.148438 2.28125 -3.140625 C 2.332031 -3.128906 2.390625 -3.109375 2.453125 -3.078125 C 2.554688 -3.023438 2.609375 -2.875 2.609375 -2.625 C 2.609375 -2.375 2.550781 -2.21875 2.4375 -2.15625 C 2.382812 -2.132812 2.332031 -2.117188 2.28125 -2.109375 C 2.238281 -2.097656 2.171875 -2.09375 2.078125 -2.09375 Z M 2.078125 -2.09375 "/></g></g></g><g fill="#ffffff" fill-opacity="1"><g transform="translate(194.337409, 225.223824)"><g><path d="M 1.171875 -0.984375 C 1.234375 -0.921875 1.265625 -0.78125 1.265625 -0.5625 L 1.265625 -0.546875 C 1.265625 -0.453125 1.257812 -0.378906 1.25 -0.328125 C 1.25 -0.285156 1.234375 -0.234375 1.203125 -0.171875 C 1.140625 -0.0546875 0.988281 0 0.75 0 C 0.507812 0 0.347656 -0.0351562 0.265625 -0.109375 C 0.191406 -0.179688 0.15625 -0.328125 0.15625 -0.546875 L 0.15625 -0.5625 C 0.15625 -0.65625 0.15625 -0.722656 0.15625 -0.765625 C 0.164062 -0.816406 0.1875 -0.875 0.21875 -0.9375 C 0.28125 -1.050781 0.429688 -1.109375 0.671875 -1.109375 C 0.910156 -1.109375 1.078125 -1.066406 1.171875 -0.984375 Z M 1.171875 -0.984375 "/></g></g></g><g fill="#ffffff" fill-opacity="1"><g transform="translate(195.759423, 225.223824)"><g><path d="M 3.03125 -1.0625 C 3.195312 -1.0625 3.3125 -1.039062 3.375 -1 C 3.445312 -0.957031 3.492188 -0.894531 3.515625 -0.8125 C 3.546875 -0.738281 3.5625 -0.640625 3.5625 -0.515625 C 3.5625 -0.390625 3.546875 -0.289062 3.515625 -0.21875 C 3.492188 -0.144531 3.453125 -0.09375 3.390625 -0.0625 C 3.304688 -0.0078125 3.1875 0.015625 3.03125 0.015625 L 0.671875 0.015625 C 0.535156 0.015625 0.414062 -0.0351562 0.3125 -0.140625 C 0.207031 -0.253906 0.15625 -0.382812 0.15625 -0.53125 C 0.15625 -0.75 0.226562 -0.945312 0.375 -1.125 C 0.519531 -1.300781 0.695312 -1.453125 0.90625 -1.578125 C 1.125 -1.710938 1.335938 -1.84375 1.546875 -1.96875 C 1.765625 -2.101562 1.945312 -2.25 2.09375 -2.40625 C 2.25 -2.5625 2.328125 -2.734375 2.328125 -2.921875 C 2.328125 -2.953125 2.3125 -3 2.28125 -3.0625 C 2.25 -3.132812 2.21875 -3.191406 2.1875 -3.234375 C 2.15625 -3.273438 2.101562 -3.3125 2.03125 -3.34375 C 1.957031 -3.382812 1.851562 -3.40625 1.71875 -3.40625 C 1.59375 -3.40625 1.484375 -3.359375 1.390625 -3.265625 C 1.296875 -3.171875 1.242188 -3.078125 1.234375 -2.984375 L 1.21875 -2.84375 L 1.21875 -2.8125 C 1.21875 -2.71875 1.210938 -2.648438 1.203125 -2.609375 C 1.191406 -2.566406 1.171875 -2.515625 1.140625 -2.453125 C 1.085938 -2.359375 0.929688 -2.3125 0.671875 -2.3125 C 0.398438 -2.3125 0.238281 -2.390625 0.1875 -2.546875 C 0.164062 -2.609375 0.15625 -2.707031 0.15625 -2.84375 C 0.15625 -3.257812 0.300781 -3.632812 0.59375 -3.96875 C 0.894531 -4.300781 1.285156 -4.46875 1.765625 -4.46875 C 2.242188 -4.46875 2.632812 -4.300781 2.9375 -3.96875 C 3.238281 -3.632812 3.390625 -3.25 3.390625 -2.8125 C 3.390625 -2.59375 3.335938 -2.378906 3.234375 -2.171875 C 3.140625 -1.960938 3.019531 -1.800781 2.875 -1.6875 C 2.582031 -1.414062 2.320312 -1.234375 2.09375 -1.140625 L 1.9375 -1.09375 L 1.9375 -1.0625 Z M 3.03125 -1.0625 "/></g></g></g><g fill="#ffffff" fill-opacity="1"><g transform="translate(199.413451, 225.223824)"><g><path d="M 0.609375 -3.890625 C 0.722656 -4.054688 0.882812 -4.191406 1.09375 -4.296875 C 1.300781 -4.410156 1.539062 -4.46875 1.8125 -4.46875 C 2.09375 -4.46875 2.335938 -4.410156 2.546875 -4.296875 C 2.753906 -4.191406 2.914062 -4.054688 3.03125 -3.890625 C 3.144531 -3.734375 3.238281 -3.550781 3.3125 -3.34375 C 3.4375 -2.976562 3.5 -2.59375 3.5 -2.1875 C 3.5 -1.46875 3.34375 -0.894531 3.03125 -0.46875 C 2.914062 -0.3125 2.753906 -0.179688 2.546875 -0.078125 C 2.335938 0.0234375 2.097656 0.078125 1.828125 0.078125 C 1.554688 0.078125 1.316406 0.0234375 1.109375 -0.078125 C 0.898438 -0.179688 0.734375 -0.3125 0.609375 -0.46875 C 0.492188 -0.625 0.398438 -0.8125 0.328125 -1.03125 C 0.210938 -1.375 0.15625 -1.765625 0.15625 -2.203125 C 0.15625 -2.597656 0.203125 -2.9375 0.296875 -3.21875 C 0.390625 -3.5 0.492188 -3.722656 0.609375 -3.890625 Z M 1.8125 -0.984375 C 2.226562 -0.984375 2.4375 -1.375 2.4375 -2.15625 L 2.4375 -2.203125 C 2.4375 -3.003906 2.234375 -3.40625 1.828125 -3.40625 C 1.421875 -3.40625 1.21875 -3 1.21875 -2.1875 C 1.21875 -1.382812 1.414062 -0.984375 1.8125 -0.984375 Z M 1.8125 -0.984375 "/></g></g></g><g fill="#ffffff" fill-opacity="1"><g transform="translate(203.061483, 225.223824)"><g><path d="M 3.03125 -1.0625 C 3.195312 -1.0625 3.3125 -1.039062 3.375 -1 C 3.445312 -0.957031 3.492188 -0.894531 3.515625 -0.8125 C 3.546875 -0.738281 3.5625 -0.640625 3.5625 -0.515625 C 3.5625 -0.390625 3.546875 -0.289062 3.515625 -0.21875 C 3.492188 -0.144531 3.453125 -0.09375 3.390625 -0.0625 C 3.304688 -0.0078125 3.1875 0.015625 3.03125 0.015625 L 0.671875 0.015625 C 0.535156 0.015625 0.414062 -0.0351562 0.3125 -0.140625 C 0.207031 -0.253906 0.15625 -0.382812 0.15625 -0.53125 C 0.15625 -0.75 0.226562 -0.945312 0.375 -1.125 C 0.519531 -1.300781 0.695312 -1.453125 0.90625 -1.578125 C 1.125 -1.710938 1.335938 -1.84375 1.546875 -1.96875 C 1.765625 -2.101562 1.945312 -2.25 2.09375 -2.40625 C 2.25 -2.5625 2.328125 -2.734375 2.328125 -2.921875 C 2.328125 -2.953125 2.3125 -3 2.28125 -3.0625 C 2.25 -3.132812 2.21875 -3.191406 2.1875 -3.234375 C 2.15625 -3.273438 2.101562 -3.3125 2.03125 -3.34375 C 1.957031 -3.382812 1.851562 -3.40625 1.71875 -3.40625 C 1.59375 -3.40625 1.484375 -3.359375 1.390625 -3.265625 C 1.296875 -3.171875 1.242188 -3.078125 1.234375 -2.984375 L 1.21875 -2.84375 L 1.21875 -2.8125 C 1.21875 -2.71875 1.210938 -2.648438 1.203125 -2.609375 C 1.191406 -2.566406 1.171875 -2.515625 1.140625 -2.453125 C 1.085938 -2.359375 0.929688 -2.3125 0.671875 -2.3125 C 0.398438 -2.3125 0.238281 -2.390625 0.1875 -2.546875 C 0.164062 -2.609375 0.15625 -2.707031 0.15625 -2.84375 C 0.15625 -3.257812 0.300781 -3.632812 0.59375 -3.96875 C 0.894531 -4.300781 1.285156 -4.46875 1.765625 -4.46875 C 2.242188 -4.46875 2.632812 -4.300781 2.9375 -3.96875 C 3.238281 -3.632812 3.390625 -3.25 3.390625 -2.8125 C 3.390625 -2.59375 3.335938 -2.378906 3.234375 -2.171875 C 3.140625 -1.960938 3.019531 -1.800781 2.875 -1.6875 C 2.582031 -1.414062 2.320312 -1.234375 2.09375 -1.140625 L 1.9375 -1.09375 L 1.9375 -1.0625 Z M 3.03125 -1.0625 "/></g></g></g><g fill="#ffffff" fill-opacity="1"><g transform="translate(206.715511, 225.223824)"><g><path d="M 1.8125 -4.46875 C 2.300781 -4.46875 2.6875 -4.328125 2.96875 -4.046875 C 3.257812 -3.765625 3.40625 -3.445312 3.40625 -3.09375 C 3.40625 -2.75 3.25 -2.5 2.9375 -2.34375 L 2.9375 -2.296875 C 2.976562 -2.273438 3.035156 -2.226562 3.109375 -2.15625 C 3.191406 -2.09375 3.253906 -2.03125 3.296875 -1.96875 C 3.429688 -1.800781 3.5 -1.609375 3.5 -1.390625 C 3.5 -0.960938 3.335938 -0.609375 3.015625 -0.328125 C 2.691406 -0.0546875 2.289062 0.078125 1.8125 0.078125 C 1.332031 0.078125 0.929688 -0.0625 0.609375 -0.34375 C 0.492188 -0.445312 0.390625 -0.585938 0.296875 -0.765625 C 0.265625 -0.828125 0.242188 -0.878906 0.234375 -0.921875 L 0.21875 -0.984375 C 0.175781 -1.117188 0.15625 -1.226562 0.15625 -1.3125 C 0.15625 -1.539062 0.347656 -1.65625 0.734375 -1.65625 C 0.898438 -1.65625 1.007812 -1.632812 1.0625 -1.59375 C 1.125 -1.539062 1.179688 -1.4375 1.234375 -1.28125 C 1.273438 -1.15625 1.382812 -1.0625 1.5625 -1 C 1.644531 -0.96875 1.726562 -0.953125 1.8125 -0.953125 C 2.03125 -0.953125 2.1875 -0.992188 2.28125 -1.078125 C 2.382812 -1.171875 2.4375 -1.269531 2.4375 -1.375 C 2.4375 -1.488281 2.382812 -1.582031 2.28125 -1.65625 C 2.1875 -1.738281 2.070312 -1.78125 1.9375 -1.78125 C 1.800781 -1.78125 1.707031 -1.785156 1.65625 -1.796875 C 1.613281 -1.804688 1.566406 -1.828125 1.515625 -1.859375 C 1.398438 -1.910156 1.34375 -2.066406 1.34375 -2.328125 C 1.34375 -2.597656 1.421875 -2.757812 1.578125 -2.8125 C 1.640625 -2.832031 1.742188 -2.84375 1.890625 -2.84375 C 2.191406 -2.84375 2.34375 -2.921875 2.34375 -3.078125 C 2.34375 -3.160156 2.300781 -3.238281 2.21875 -3.3125 C 2.132812 -3.394531 2.019531 -3.4375 1.875 -3.4375 C 1.738281 -3.4375 1.628906 -3.410156 1.546875 -3.359375 C 1.460938 -3.316406 1.410156 -3.269531 1.390625 -3.21875 L 1.359375 -3.15625 C 1.265625 -2.945312 1.128906 -2.84375 0.953125 -2.84375 C 0.859375 -2.84375 0.75 -2.878906 0.625 -2.953125 C 0.425781 -3.066406 0.328125 -3.203125 0.328125 -3.359375 C 0.328125 -3.421875 0.375 -3.554688 0.46875 -3.765625 C 0.476562 -3.804688 0.519531 -3.867188 0.59375 -3.953125 C 0.664062 -4.046875 0.75 -4.125 0.84375 -4.1875 C 0.9375 -4.257812 1.066406 -4.320312 1.234375 -4.375 C 1.410156 -4.4375 1.601562 -4.46875 1.8125 -4.46875 Z M 1.8125 -4.46875 "/></g></g></g></svg>